<svg xmlns="http://www.w3.org/2000/svg" xmlns:xlink="http://www.w3.org/1999/xlink" width="120" zoomAndPan="magnify" viewBox="0 0 90 89.999999" height="120" preserveAspectRatio="xMidYMid meet" version="1.0"><defs><g/><clipPath id="c56405e7ae"><path d="M 3.71875 23 L 33 23 L 33 66 L 3.71875 66 Z M 3.71875 23 " clip-rule="nonzero"/></clipPath><clipPath id="9adf9d71e3"><path d="M 57 23 L 86.21875 23 L 86.21875 66 L 57 66 Z M 57 23 " clip-rule="nonzero"/></clipPath><clipPath id="6bcf464d27"><path d="M 30 12.953125 L 59 12.953125 L 59 76.703125 L 30 76.703125 Z M 30 12.953125 " clip-rule="nonzero"/></clipPath></defs><path fill="#ffffff" d="M 29.75 64.929688 C 29.292969 64.929688 28.84375 64.777344 28.484375 64.492188 L 5.414062 46.421875 C 4.917969 46.035156 4.632812 45.453125 4.632812 44.828125 C 4.632812 44.199219 4.917969 43.617188 5.414062 43.226562 L 28.484375 25.160156 C 28.84375 24.875 29.292969 24.722656 29.75 24.722656 C 30.378906 24.722656 30.964844 25.003906 31.351562 25.5 C 31.691406 25.925781 31.84375 26.460938 31.777344 26.996094 C 31.714844 27.539062 31.441406 28.019531 31.011719 28.355469 L 9.984375 44.828125 L 31.011719 61.292969 C 31.441406 61.632812 31.714844 62.113281 31.777344 62.652344 C 31.84375 63.191406 31.691406 63.722656 31.351562 64.152344 C 30.964844 64.644531 30.378906 64.929688 29.75 64.929688 " fill-opacity="1" fill-rule="nonzero"/><g clip-path="url(#c56405e7ae)"><path fill="#ffffff" d="M 29.75 23.859375 C 29.097656 23.859375 28.460938 24.078125 27.949219 24.476562 L 4.875 42.546875 C 4.167969 43.105469 3.761719 43.933594 3.761719 44.828125 C 3.761719 45.71875 4.171875 46.550781 4.875 47.105469 L 27.949219 65.175781 C 28.457031 65.574219 29.097656 65.792969 29.75 65.792969 C 30.648438 65.792969 31.484375 65.390625 32.039062 64.6875 C 32.523438 64.078125 32.734375 63.320312 32.644531 62.550781 C 32.550781 61.78125 32.164062 61.09375 31.550781 60.613281 L 11.390625 44.828125 L 31.550781 29.039062 C 32.164062 28.554688 32.550781 27.871094 32.644531 27.101562 C 32.734375 26.332031 32.523438 25.574219 32.039062 24.964844 C 31.484375 24.261719 30.648438 23.859375 29.75 23.859375 Z M 29.75 25.589844 C 30.097656 25.589844 30.441406 25.742188 30.671875 26.035156 C 31.074219 26.542969 30.984375 27.277344 30.476562 27.675781 L 8.574219 44.828125 L 30.476562 61.976562 C 30.984375 62.375 31.074219 63.109375 30.671875 63.617188 C 30.441406 63.910156 30.097656 64.0625 29.75 64.0625 C 29.496094 64.0625 29.242188 63.984375 29.023438 63.8125 L 5.953125 45.746094 C 5.667969 45.523438 5.503906 45.183594 5.503906 44.828125 C 5.503906 44.464844 5.667969 44.128906 5.953125 43.910156 L 29.023438 25.839844 C 29.238281 25.671875 29.496094 25.589844 29.75 25.589844 " fill-opacity="1" fill-rule="nonzero"/></g><path fill="#ffffff" d="M 60.191406 64.929688 C 59.558594 64.929688 58.976562 64.644531 58.582031 64.152344 C 57.886719 63.273438 58.039062 61.992188 58.925781 61.292969 L 79.957031 44.828125 L 58.925781 28.355469 C 58.039062 27.664062 57.886719 26.378906 58.582031 25.5 C 58.976562 25.003906 59.558594 24.722656 60.191406 24.722656 C 60.644531 24.722656 61.09375 24.875 61.453125 25.160156 L 84.527344 43.226562 C 85.023438 43.617188 85.304688 44.199219 85.304688 44.828125 C 85.304688 45.453125 85.023438 46.035156 84.523438 46.421875 L 61.453125 64.492188 C 61.09375 64.777344 60.644531 64.929688 60.191406 64.929688 " fill-opacity="1" fill-rule="nonzero"/><g clip-path="url(#9adf9d71e3)"><path fill="#ffffff" d="M 60.191406 23.859375 C 59.292969 23.859375 58.457031 24.261719 57.898438 24.964844 C 56.90625 26.222656 57.125 28.046875 58.386719 29.039062 L 78.546875 44.828125 L 58.386719 60.613281 C 57.125 61.601562 56.90625 63.433594 57.898438 64.6875 C 58.457031 65.390625 59.292969 65.792969 60.191406 65.792969 C 60.839844 65.792969 61.476562 65.574219 61.988281 65.175781 L 85.0625 47.105469 C 85.769531 46.550781 86.171875 45.71875 86.171875 44.828125 C 86.171875 43.933594 85.769531 43.105469 85.066406 42.546875 L 61.992188 24.476562 C 61.480469 24.078125 60.839844 23.859375 60.191406 23.859375 Z M 60.191406 25.589844 C 60.445312 25.589844 60.703125 25.671875 60.914062 25.839844 L 83.988281 43.910156 C 84.269531 44.128906 84.433594 44.464844 84.433594 44.828125 C 84.433594 45.183594 84.269531 45.523438 83.988281 45.746094 L 60.914062 63.8125 C 60.703125 63.984375 60.445312 64.0625 60.191406 64.0625 C 59.84375 64.0625 59.496094 63.910156 59.269531 63.617188 C 58.867188 63.109375 58.953125 62.375 59.464844 61.976562 L 81.363281 44.828125 L 59.464844 27.675781 C 58.953125 27.277344 58.867188 26.542969 59.269531 26.035156 C 59.496094 25.742188 59.847656 25.589844 60.191406 25.589844 " fill-opacity="1" fill-rule="nonzero"/></g><path fill="#ffffff" d="M 33.503906 75.832031 C 33.25 75.832031 33.003906 75.78125 32.765625 75.691406 C 32.257812 75.496094 31.855469 75.113281 31.636719 74.617188 C 31.414062 74.121094 31.402344 73.570312 31.597656 73.0625 L 54.128906 15.121094 C 54.433594 14.34375 55.199219 13.820312 56.035156 13.820312 C 56.289062 13.820312 56.539062 13.871094 56.777344 13.960938 C 57.824219 14.363281 58.347656 15.546875 57.941406 16.59375 L 35.410156 74.53125 C 35.109375 75.308594 34.339844 75.832031 33.503906 75.832031 " fill-opacity="1" fill-rule="nonzero"/><g clip-path="url(#6bcf464d27)"><path fill="#ffffff" d="M 56.035156 12.953125 C 54.839844 12.953125 53.746094 13.703125 53.320312 14.808594 L 30.785156 72.75 C 30.507812 73.472656 30.523438 74.257812 30.839844 74.96875 C 31.15625 75.675781 31.726562 76.222656 32.453125 76.5 C 32.789062 76.632812 33.140625 76.699219 33.503906 76.699219 C 34.699219 76.699219 35.789062 75.953125 36.222656 74.84375 L 58.753906 16.90625 C 59.335938 15.410156 58.585938 13.726562 57.085938 13.152344 C 56.75 13.019531 56.398438 12.953125 56.035156 12.953125 Z M 56.035156 14.6875 C 56.175781 14.6875 56.320312 14.714844 56.460938 14.765625 C 57.066406 15 57.363281 15.675781 57.132812 16.277344 L 34.597656 74.21875 C 34.417969 74.679688 33.972656 74.964844 33.503906 74.964844 C 33.363281 74.964844 33.21875 74.941406 33.078125 74.886719 C 32.472656 74.652344 32.175781 73.976562 32.410156 73.375 L 54.941406 15.433594 C 55.121094 14.972656 55.566406 14.6875 56.035156 14.6875 " fill-opacity="1" fill-rule="nonzero"/></g><g fill="#ffffff" fill-opacity="1"><g transform="translate(3.722344, 10.851346)"><g><path d="M 6.578125 0 L 5.140625 0 L 4.640625 -1.578125 L 2.015625 -1.578125 L 1.5 0 L 0.109375 0 L 2.46875 -6.84375 L 4.203125 -6.84375 Z M 3.25 -5.421875 L 2.375 -2.71875 L 4.265625 -2.71875 L 3.375 -5.421875 Z M 3.25 -5.421875 "/></g></g></g><g fill="#ffffff" fill-opacity="1"><g transform="translate(10.40138, 10.851346)"><g><path d="M 4.078125 0 L 2.4375 0 L 0.125 -6.84375 L 1.5625 -6.84375 L 3.21875 -1.75 L 3.34375 -1.75 L 4.984375 -6.84375 L 6.375 -6.84375 Z M 4.078125 0 "/></g></g></g><g fill="#ffffff" fill-opacity="1"><g transform="translate(16.906995, 10.851346)"><g><path d="M 2.25 -3 L 2.25 -1.140625 L 5.515625 -1.140625 L 5.515625 0 L 0.890625 0 L 0.890625 -6.84375 L 5.4375 -6.84375 L 5.4375 -5.71875 L 2.25 -5.71875 L 2.25 -4.109375 L 5.03125 -4.109375 L 5.03125 -3 Z M 2.25 -3 "/></g></g></g><g fill="#ffffff" fill-opacity="1"><g transform="translate(22.798608, 10.851346)"><g><path d="M 0.890625 0 L 0.890625 -6.84375 L 3.640625 -6.84375 C 4.347656 -6.84375 4.878906 -6.679688 5.234375 -6.359375 C 5.597656 -6.035156 5.78125 -5.582031 5.78125 -5 C 5.78125 -4.59375 5.675781 -4.253906 5.46875 -3.984375 C 5.257812 -3.722656 4.945312 -3.519531 4.53125 -3.375 L 4.53125 -3.28125 C 4.738281 -3.1875 4.910156 -3.046875 5.046875 -2.859375 C 5.179688 -2.671875 5.304688 -2.398438 5.421875 -2.046875 L 6.109375 0 L 4.71875 0 L 4.046875 -2.046875 C 3.972656 -2.253906 3.894531 -2.414062 3.8125 -2.53125 C 3.726562 -2.644531 3.617188 -2.726562 3.484375 -2.78125 C 3.347656 -2.832031 3.175781 -2.859375 2.96875 -2.859375 L 2.25 -2.859375 L 2.25 0 Z M 3.46875 -3.921875 C 4.125 -3.921875 4.453125 -4.226562 4.453125 -4.84375 C 4.453125 -5.46875 4.125 -5.78125 3.46875 -5.78125 L 2.25 -5.78125 L 2.25 -3.921875 Z M 3.46875 -3.921875 "/></g></g></g><g fill="#ffffff" fill-opacity="1"><g transform="translate(29.205796, 10.851346)"><g><path d="M 3.75 0 L 2.40625 0 L 2.40625 -2.6875 L 0.03125 -6.84375 L 1.484375 -6.84375 L 3.046875 -4.15625 L 3.171875 -4.15625 L 4.703125 -6.84375 L 6.125 -6.84375 L 3.75 -2.6875 Z M 3.75 0 "/></g></g></g><g fill="#ffffff" fill-opacity="1"><g transform="translate(35.359883, 10.851346)"><g/></g></g><g fill="#ffffff" fill-opacity="1"><g transform="translate(37.623726, 10.851346)"><g><path d="M 3.75 0.09375 C 3.113281 0.09375 2.554688 -0.0351562 2.078125 -0.296875 C 1.597656 -0.554688 1.21875 -0.945312 0.9375 -1.46875 C 0.664062 -2 0.53125 -2.648438 0.53125 -3.421875 C 0.53125 -4.191406 0.664062 -4.835938 0.9375 -5.359375 C 1.21875 -5.890625 1.597656 -6.285156 2.078125 -6.546875 C 2.554688 -6.816406 3.113281 -6.953125 3.75 -6.953125 C 4.40625 -6.953125 4.960938 -6.820312 5.421875 -6.5625 C 5.878906 -6.300781 6.207031 -5.90625 6.40625 -5.375 L 5.421875 -4.78125 L 5.296875 -4.78125 C 5.148438 -5.132812 4.953125 -5.390625 4.703125 -5.546875 C 4.453125 -5.703125 4.132812 -5.78125 3.75 -5.78125 C 3.175781 -5.78125 2.726562 -5.59375 2.40625 -5.21875 C 2.09375 -4.84375 1.9375 -4.242188 1.9375 -3.421875 C 1.9375 -2.609375 2.09375 -2.015625 2.40625 -1.640625 C 2.726562 -1.265625 3.175781 -1.078125 3.75 -1.078125 C 4.632812 -1.078125 5.175781 -1.507812 5.375 -2.375 L 5.5 -2.375 L 6.5 -1.84375 C 6.3125 -1.195312 5.988281 -0.710938 5.53125 -0.390625 C 5.082031 -0.0664062 4.488281 0.09375 3.75 0.09375 Z M 3.75 0.09375 "/></g></g></g><g fill="#ffffff" fill-opacity="1"><g transform="translate(44.344944, 10.851346)"><g><path d="M 2.25 -6.84375 L 2.25 -1.140625 L 5.328125 -1.140625 L 5.328125 0 L 0.890625 0 L 0.890625 -6.84375 Z M 2.25 -6.84375 "/></g></g></g><g fill="#ffffff" fill-opacity="1"><g transform="translate(49.894402, 10.851346)"><g><path d="M 6.578125 0 L 5.140625 0 L 4.640625 -1.578125 L 2.015625 -1.578125 L 1.5 0 L 0.109375 0 L 2.46875 -6.84375 L 4.203125 -6.84375 Z M 3.25 -5.421875 L 2.375 -2.71875 L 4.265625 -2.71875 L 3.375 -5.421875 Z M 3.25 -5.421875 "/></g></g></g><g fill="#ffffff" fill-opacity="1"><g transform="translate(56.573435, 10.851346)"><g><path d="M 0.890625 0 L 0.890625 -6.84375 L 3.640625 -6.84375 C 4.347656 -6.84375 4.878906 -6.679688 5.234375 -6.359375 C 5.597656 -6.035156 5.78125 -5.582031 5.78125 -5 C 5.78125 -4.59375 5.675781 -4.253906 5.46875 -3.984375 C 5.257812 -3.722656 4.945312 -3.519531 4.53125 -3.375 L 4.53125 -3.28125 C 4.738281 -3.1875 4.910156 -3.046875 5.046875 -2.859375 C 5.179688 -2.671875 5.304688 -2.398438 5.421875 -2.046875 L 6.109375 0 L 4.71875 0 L 4.046875 -2.046875 C 3.972656 -2.253906 3.894531 -2.414062 3.8125 -2.53125 C 3.726562 -2.644531 3.617188 -2.726562 3.484375 -2.78125 C 3.347656 -2.832031 3.175781 -2.859375 2.96875 -2.859375 L 2.25 -2.859375 L 2.25 0 Z M 3.46875 -3.921875 C 4.125 -3.921875 4.453125 -4.226562 4.453125 -4.84375 C 4.453125 -5.46875 4.125 -5.78125 3.46875 -5.78125 L 2.25 -5.78125 L 2.25 -3.921875 Z M 3.46875 -3.921875 "/></g></g></g><g fill="#ffffff" fill-opacity="1"><g transform="translate(62.980623, 10.851346)"><g><path d="M 2.25 0 L 0.890625 0 L 0.890625 -6.84375 L 2.25 -6.84375 Z M 2.25 0 "/></g></g></g><g fill="#ffffff" fill-opacity="1"><g transform="translate(66.120938, 10.851346)"><g><path d="M 3.359375 -6.84375 C 4.460938 -6.84375 5.304688 -6.554688 5.890625 -5.984375 C 6.484375 -5.410156 6.78125 -4.554688 6.78125 -3.421875 C 6.78125 -2.296875 6.484375 -1.441406 5.890625 -0.859375 C 5.304688 -0.285156 4.460938 0 3.359375 0 L 0.890625 0 L 0.890625 -6.84375 Z M 3.28125 -1.140625 C 3.976562 -1.140625 4.5 -1.316406 4.84375 -1.671875 C 5.195312 -2.035156 5.375 -2.617188 5.375 -3.421875 C 5.375 -4.222656 5.195312 -4.800781 4.84375 -5.15625 C 4.5 -5.519531 3.976562 -5.703125 3.28125 -5.703125 L 2.25 -5.703125 L 2.25 -1.140625 Z M 3.28125 -1.140625 "/></g></g></g><g fill="#ffffff" fill-opacity="1"><g transform="translate(73.446786, 10.851346)"><g><path d="M 6.578125 0 L 5.140625 0 L 4.640625 -1.578125 L 2.015625 -1.578125 L 1.5 0 L 0.109375 0 L 2.46875 -6.84375 L 4.203125 -6.84375 Z M 3.25 -5.421875 L 2.375 -2.71875 L 4.265625 -2.71875 L 3.375 -5.421875 Z M 3.25 -5.421875 "/></g></g></g><g fill="#ffffff" fill-opacity="1"><g transform="translate(80.125825, 10.851346)"><g><path d="M 3.75 0 L 2.40625 0 L 2.40625 -2.6875 L 0.03125 -6.84375 L 1.484375 -6.84375 L 3.046875 -4.15625 L 3.171875 -4.15625 L 4.703125 -6.84375 L 6.125 -6.84375 L 3.75 -2.6875 Z M 3.75 0 "/></g></g></g><g fill="#ffffff" fill-opacity="1"><g transform="translate(1.975782, 86.348654)"><g><path d="M 3.03125 0.09375 C 2.5625 0.09375 2.140625 0.0351562 1.765625 -0.078125 C 1.398438 -0.191406 1.09375 -0.34375 0.84375 -0.53125 C 0.59375 -0.726562 0.40625 -0.941406 0.28125 -1.171875 L 1.015625 -2.078125 L 1.140625 -2.078125 C 1.347656 -1.765625 1.609375 -1.519531 1.921875 -1.34375 C 2.242188 -1.164062 2.613281 -1.078125 3.03125 -1.078125 C 3.394531 -1.078125 3.664062 -1.148438 3.84375 -1.296875 C 4.03125 -1.453125 4.125 -1.664062 4.125 -1.9375 C 4.125 -2.09375 4.09375 -2.222656 4.03125 -2.328125 C 3.976562 -2.441406 3.882812 -2.535156 3.75 -2.609375 C 3.613281 -2.691406 3.425781 -2.765625 3.1875 -2.828125 L 2.3125 -3.03125 C 1.695312 -3.164062 1.238281 -3.394531 0.9375 -3.71875 C 0.632812 -4.050781 0.484375 -4.476562 0.484375 -5 C 0.484375 -5.382812 0.578125 -5.722656 0.765625 -6.015625 C 0.960938 -6.304688 1.242188 -6.535156 1.609375 -6.703125 C 1.984375 -6.867188 2.429688 -6.953125 2.953125 -6.953125 C 3.472656 -6.953125 3.921875 -6.878906 4.296875 -6.734375 C 4.671875 -6.597656 4.988281 -6.382812 5.25 -6.09375 L 4.59375 -5.1875 L 4.46875 -5.1875 C 4.269531 -5.382812 4.046875 -5.535156 3.796875 -5.640625 C 3.546875 -5.742188 3.265625 -5.796875 2.953125 -5.796875 C 2.578125 -5.796875 2.289062 -5.726562 2.09375 -5.59375 C 1.90625 -5.457031 1.8125 -5.273438 1.8125 -5.046875 C 1.8125 -4.835938 1.878906 -4.664062 2.015625 -4.53125 C 2.148438 -4.40625 2.382812 -4.304688 2.71875 -4.234375 L 3.609375 -4.046875 C 4.273438 -3.910156 4.757812 -3.671875 5.0625 -3.328125 C 5.363281 -2.992188 5.515625 -2.554688 5.515625 -2.015625 C 5.515625 -1.585938 5.421875 -1.210938 5.234375 -0.890625 C 5.046875 -0.578125 4.765625 -0.332031 4.390625 -0.15625 C 4.023438 0.0078125 3.570312 0.09375 3.03125 0.09375 Z M 3.03125 0.09375 "/></g></g></g><g fill="#ffffff" fill-opacity="1"><g transform="translate(7.862706, 86.348654)"><g><path d="M 3 0.09375 C 2.5 0.09375 2.054688 -0.0078125 1.671875 -0.21875 C 1.285156 -0.425781 0.988281 -0.726562 0.78125 -1.125 C 0.570312 -1.53125 0.46875 -2.015625 0.46875 -2.578125 C 0.46875 -3.148438 0.570312 -3.632812 0.78125 -4.03125 C 0.988281 -4.4375 1.285156 -4.742188 1.671875 -4.953125 C 2.054688 -5.160156 2.5 -5.265625 3 -5.265625 C 3.507812 -5.265625 3.953125 -5.160156 4.328125 -4.953125 C 4.710938 -4.742188 5.007812 -4.4375 5.21875 -4.03125 C 5.4375 -3.632812 5.546875 -3.148438 5.546875 -2.578125 C 5.546875 -2.015625 5.4375 -1.53125 5.21875 -1.125 C 5.007812 -0.726562 4.710938 -0.425781 4.328125 -0.21875 C 3.953125 -0.0078125 3.507812 0.09375 3 0.09375 Z M 3 -1 C 3.800781 -1 4.203125 -1.523438 4.203125 -2.578125 C 4.203125 -3.128906 4.097656 -3.53125 3.890625 -3.78125 C 3.691406 -4.039062 3.394531 -4.171875 3 -4.171875 C 2.195312 -4.171875 1.796875 -3.640625 1.796875 -2.578125 C 1.796875 -1.523438 2.195312 -1 3 -1 Z M 3 -1 "/></g></g></g><g fill="#ffffff" fill-opacity="1"><g transform="translate(13.871494, 86.348654)"><g><path d="M 0.90625 0 L 0.90625 -4.140625 L 0.171875 -4.140625 L 0.171875 -5.171875 L 0.90625 -5.171875 C 0.851562 -5.390625 0.828125 -5.59375 0.828125 -5.78125 C 0.828125 -6.113281 0.898438 -6.394531 1.046875 -6.625 C 1.203125 -6.851562 1.421875 -7.03125 1.703125 -7.15625 C 1.984375 -7.28125 2.316406 -7.34375 2.703125 -7.34375 C 3.273438 -7.34375 3.703125 -7.242188 3.984375 -7.046875 L 3.671875 -6.09375 L 3.578125 -6.078125 C 3.378906 -6.210938 3.128906 -6.28125 2.828125 -6.28125 C 2.597656 -6.28125 2.421875 -6.222656 2.296875 -6.109375 C 2.179688 -5.992188 2.125 -5.835938 2.125 -5.640625 C 2.125 -5.554688 2.128906 -5.476562 2.140625 -5.40625 C 2.148438 -5.332031 2.171875 -5.253906 2.203125 -5.171875 L 3.671875 -5.171875 L 3.671875 -4.140625 L 2.203125 -4.140625 L 2.203125 0 Z M 0.90625 0 "/></g></g></g><g fill="#ffffff" fill-opacity="1"><g transform="translate(17.602379, 86.348654)"><g><path d="M 3.5625 -1.234375 L 3.90625 -0.265625 C 3.757812 -0.148438 3.578125 -0.0625 3.359375 0 C 3.148438 0.0625 2.914062 0.09375 2.65625 0.09375 C 2.09375 0.09375 1.664062 -0.0546875 1.375 -0.359375 C 1.082031 -0.660156 0.9375 -1.101562 0.9375 -1.6875 L 0.9375 -4.140625 L 0.15625 -4.140625 L 0.15625 -5.171875 L 0.9375 -5.171875 L 0.9375 -6.171875 L 2.234375 -6.390625 L 2.234375 -5.171875 L 3.703125 -5.171875 L 3.703125 -4.140625 L 2.234375 -4.140625 L 2.234375 -1.78125 C 2.234375 -1.519531 2.285156 -1.332031 2.390625 -1.21875 C 2.503906 -1.101562 2.660156 -1.046875 2.859375 -1.046875 C 3.085938 -1.046875 3.289062 -1.109375 3.46875 -1.234375 Z M 3.5625 -1.234375 "/></g></g></g><g fill="#ffffff" fill-opacity="1"><g transform="translate(21.619176, 86.348654)"><g><path d="M 2.765625 0 L 1.421875 0 L 0.1875 -5.171875 L 1.390625 -5.171875 L 2.15625 -1.671875 L 2.25 -1.671875 L 3.234375 -5.171875 L 4.359375 -5.171875 L 5.375 -1.671875 L 5.46875 -1.671875 L 6.203125 -5.171875 L 7.375 -5.171875 L 6.15625 0 L 4.796875 0 L 3.8125 -3.515625 L 3.71875 -3.515625 Z M 2.765625 0 "/></g></g></g><g fill="#ffffff" fill-opacity="1"><g transform="translate(29.179376, 86.348654)"><g><path d="M 2.015625 0.09375 C 1.679688 0.09375 1.390625 0.0351562 1.140625 -0.078125 C 0.898438 -0.203125 0.710938 -0.378906 0.578125 -0.609375 C 0.453125 -0.847656 0.390625 -1.132812 0.390625 -1.46875 C 0.390625 -1.78125 0.453125 -2.035156 0.578125 -2.234375 C 0.710938 -2.441406 0.914062 -2.613281 1.1875 -2.75 C 1.46875 -2.882812 1.832031 -2.988281 2.28125 -3.0625 C 2.582031 -3.113281 2.8125 -3.164062 2.96875 -3.21875 C 3.132812 -3.28125 3.242188 -3.347656 3.296875 -3.421875 C 3.359375 -3.492188 3.390625 -3.585938 3.390625 -3.703125 C 3.390625 -3.867188 3.332031 -3.992188 3.21875 -4.078125 C 3.101562 -4.171875 2.910156 -4.21875 2.640625 -4.21875 C 2.359375 -4.21875 2.085938 -4.15625 1.828125 -4.03125 C 1.566406 -3.90625 1.335938 -3.734375 1.140625 -3.515625 L 1.046875 -3.515625 L 0.515625 -4.34375 C 0.773438 -4.632812 1.09375 -4.859375 1.46875 -5.015625 C 1.84375 -5.179688 2.253906 -5.265625 2.703125 -5.265625 C 3.390625 -5.265625 3.882812 -5.117188 4.1875 -4.828125 C 4.5 -4.535156 4.65625 -4.125 4.65625 -3.59375 L 4.65625 -1.34375 C 4.65625 -1.113281 4.753906 -1 4.953125 -1 C 5.035156 -1 5.113281 -1.015625 5.1875 -1.046875 L 5.25 -1.03125 L 5.34375 -0.125 C 5.269531 -0.0703125 5.171875 -0.03125 5.046875 0 C 4.921875 0.0195312 4.78125 0.03125 4.625 0.03125 C 4.3125 0.03125 4.066406 -0.0234375 3.890625 -0.140625 C 3.722656 -0.253906 3.601562 -0.441406 3.53125 -0.703125 L 3.421875 -0.703125 C 3.171875 -0.171875 2.703125 0.09375 2.015625 0.09375 Z M 2.421875 -0.875 C 2.722656 -0.875 2.960938 -0.972656 3.140625 -1.171875 C 3.328125 -1.367188 3.421875 -1.648438 3.421875 -2.015625 L 3.421875 -2.53125 L 3.328125 -2.5625 C 3.242188 -2.5 3.140625 -2.445312 3.015625 -2.40625 C 2.890625 -2.363281 2.707031 -2.320312 2.46875 -2.28125 C 2.1875 -2.226562 1.984375 -2.144531 1.859375 -2.03125 C 1.742188 -1.914062 1.6875 -1.753906 1.6875 -1.546875 C 1.6875 -1.328125 1.75 -1.160156 1.875 -1.046875 C 2.007812 -0.929688 2.191406 -0.875 2.421875 -0.875 Z M 2.421875 -0.875 "/></g></g></g><g fill="#ffffff" fill-opacity="1"><g transform="translate(34.630407, 86.348654)"><g><path d="M 0.75 0 L 0.75 -5.171875 L 2 -5.171875 L 2 -4.40625 L 2.109375 -4.375 C 2.234375 -4.664062 2.394531 -4.878906 2.59375 -5.015625 C 2.800781 -5.148438 3.046875 -5.21875 3.328125 -5.21875 C 3.628906 -5.21875 3.851562 -5.164062 4 -5.0625 L 3.78125 -3.9375 L 3.6875 -3.921875 C 3.601562 -3.960938 3.519531 -3.988281 3.4375 -4 C 3.363281 -4.019531 3.269531 -4.03125 3.15625 -4.03125 C 2.789062 -4.03125 2.515625 -3.898438 2.328125 -3.640625 C 2.140625 -3.390625 2.046875 -2.984375 2.046875 -2.421875 L 2.046875 0 Z M 0.75 0 "/></g></g></g><g fill="#ffffff" fill-opacity="1"><g transform="translate(38.6847, 86.348654)"><g><path d="M 5.109375 -2.296875 L 1.78125 -2.296875 C 1.820312 -1.835938 1.953125 -1.503906 2.171875 -1.296875 C 2.390625 -1.097656 2.6875 -1 3.0625 -1 C 3.363281 -1 3.601562 -1.050781 3.78125 -1.15625 C 3.96875 -1.269531 4.117188 -1.441406 4.234375 -1.671875 L 4.328125 -1.671875 L 5.1875 -1.125 C 5.019531 -0.757812 4.765625 -0.460938 4.421875 -0.234375 C 4.085938 -0.015625 3.632812 0.09375 3.0625 0.09375 C 2.53125 0.09375 2.066406 -0.00390625 1.671875 -0.203125 C 1.285156 -0.410156 0.988281 -0.710938 0.78125 -1.109375 C 0.570312 -1.515625 0.46875 -2.003906 0.46875 -2.578125 C 0.46875 -3.171875 0.578125 -3.664062 0.796875 -4.0625 C 1.015625 -4.46875 1.3125 -4.769531 1.6875 -4.96875 C 2.070312 -5.164062 2.5 -5.265625 2.96875 -5.265625 C 3.695312 -5.265625 4.253906 -5.070312 4.640625 -4.6875 C 5.035156 -4.300781 5.234375 -3.734375 5.234375 -2.984375 C 5.234375 -2.710938 5.222656 -2.5 5.203125 -2.34375 Z M 3.984375 -3.125 C 3.972656 -3.519531 3.882812 -3.804688 3.71875 -3.984375 C 3.550781 -4.171875 3.300781 -4.265625 2.96875 -4.265625 C 2.3125 -4.265625 1.925781 -3.882812 1.8125 -3.125 Z M 3.984375 -3.125 "/></g></g></g><g fill="#ffffff" fill-opacity="1"><g transform="translate(44.304464, 86.348654)"><g/></g></g><g fill="#ffffff" fill-opacity="1"><g transform="translate(46.568307, 86.348654)"><g><path d="M 2.25 -3 L 2.25 -1.140625 L 5.515625 -1.140625 L 5.515625 0 L 0.890625 0 L 0.890625 -6.84375 L 5.4375 -6.84375 L 5.4375 -5.71875 L 2.25 -5.71875 L 2.25 -4.109375 L 5.03125 -4.109375 L 5.03125 -3 Z M 2.25 -3 "/></g></g></g><g fill="#ffffff" fill-opacity="1"><g transform="translate(52.459923, 86.348654)"><g><path d="M 0.75 0 L 0.75 -5.171875 L 1.984375 -5.171875 L 1.984375 -4.40625 L 2.09375 -4.390625 C 2.414062 -4.972656 2.9375 -5.265625 3.65625 -5.265625 C 4.25 -5.265625 4.6875 -5.101562 4.96875 -4.78125 C 5.25 -4.457031 5.390625 -3.984375 5.390625 -3.359375 L 5.390625 0 L 4.09375 0 L 4.09375 -3.203125 C 4.09375 -3.546875 4.019531 -3.789062 3.875 -3.9375 C 3.738281 -4.09375 3.519531 -4.171875 3.21875 -4.171875 C 2.851562 -4.171875 2.566406 -4.050781 2.359375 -3.8125 C 2.148438 -3.570312 2.046875 -3.191406 2.046875 -2.671875 L 2.046875 0 Z M 0.75 0 "/></g></g></g><g fill="#ffffff" fill-opacity="1"><g transform="translate(58.515581, 86.348654)"><g><path d="M 2.671875 2.1875 C 1.828125 2.1875 1.203125 2.0625 0.796875 1.8125 C 0.390625 1.5625 0.1875 1.210938 0.1875 0.765625 C 0.1875 0.492188 0.269531 0.269531 0.4375 0.09375 C 0.613281 -0.0703125 0.863281 -0.1875 1.1875 -0.25 L 1.1875 -0.34375 C 1.007812 -0.445312 0.882812 -0.5625 0.8125 -0.6875 C 0.738281 -0.820312 0.703125 -0.972656 0.703125 -1.140625 C 0.703125 -1.554688 0.972656 -1.835938 1.515625 -1.984375 L 1.515625 -2.078125 C 1.234375 -2.242188 1.019531 -2.441406 0.875 -2.671875 C 0.738281 -2.910156 0.671875 -3.195312 0.671875 -3.53125 C 0.671875 -3.875 0.75 -4.175781 0.90625 -4.4375 C 1.0625 -4.695312 1.289062 -4.898438 1.59375 -5.046875 C 1.90625 -5.191406 2.269531 -5.265625 2.6875 -5.265625 C 3.125 -5.265625 3.46875 -5.191406 3.71875 -5.046875 C 3.882812 -5.273438 3.976562 -5.539062 4 -5.84375 L 4.09375 -5.90625 L 5.03125 -5.671875 C 5 -5.421875 4.925781 -5.210938 4.8125 -5.046875 C 4.695312 -4.878906 4.519531 -4.734375 4.28125 -4.609375 L 4.28125 -4.5 C 4.570312 -4.25 4.71875 -3.890625 4.71875 -3.421875 C 4.71875 -3.109375 4.632812 -2.820312 4.46875 -2.5625 C 4.3125 -2.3125 4.082031 -2.113281 3.78125 -1.96875 C 3.476562 -1.820312 3.113281 -1.75 2.6875 -1.75 L 2.5 -1.75 C 2.375 -1.757812 2.285156 -1.765625 2.234375 -1.765625 C 2.117188 -1.765625 2.023438 -1.734375 1.953125 -1.671875 C 1.890625 -1.609375 1.859375 -1.523438 1.859375 -1.421875 C 1.859375 -1.316406 1.898438 -1.234375 1.984375 -1.171875 C 2.078125 -1.109375 2.207031 -1.070312 2.375 -1.0625 L 3.53125 -1.03125 C 4.664062 -0.988281 5.234375 -0.492188 5.234375 0.453125 C 5.234375 0.785156 5.148438 1.082031 4.984375 1.34375 C 4.816406 1.601562 4.539062 1.804688 4.15625 1.953125 C 3.78125 2.109375 3.285156 2.1875 2.671875 2.1875 Z M 2.6875 -2.65625 C 2.9375 -2.65625 3.128906 -2.726562 3.265625 -2.875 C 3.410156 -3.019531 3.484375 -3.234375 3.484375 -3.515625 C 3.484375 -3.785156 3.410156 -3.992188 3.265625 -4.140625 C 3.128906 -4.285156 2.9375 -4.359375 2.6875 -4.359375 C 2.4375 -4.359375 2.242188 -4.285156 2.109375 -4.140625 C 1.972656 -3.992188 1.90625 -3.785156 1.90625 -3.515625 C 1.90625 -3.234375 1.972656 -3.019531 2.109375 -2.875 C 2.242188 -2.726562 2.4375 -2.65625 2.6875 -2.65625 Z M 2.671875 1.25 C 3.117188 1.25 3.441406 1.1875 3.640625 1.0625 C 3.847656 0.9375 3.953125 0.773438 3.953125 0.578125 C 3.953125 0.410156 3.898438 0.289062 3.796875 0.21875 C 3.691406 0.144531 3.523438 0.101562 3.296875 0.09375 L 2.28125 0.046875 C 2.25 0.046875 2.21875 0.0390625 2.1875 0.03125 C 2.15625 0.03125 2.125 0.03125 2.09375 0.03125 C 1.875 0.03125 1.707031 0.078125 1.59375 0.171875 C 1.476562 0.265625 1.421875 0.394531 1.421875 0.5625 C 1.421875 0.78125 1.523438 0.945312 1.734375 1.0625 C 1.953125 1.1875 2.265625 1.25 2.671875 1.25 Z M 2.671875 1.25 "/></g></g></g><g fill="#ffffff" fill-opacity="1"><g transform="translate(63.89162, 86.348654)"><g><path d="M 1.390625 -5.78125 C 1.160156 -5.78125 0.96875 -5.851562 0.8125 -6 C 0.664062 -6.144531 0.59375 -6.328125 0.59375 -6.546875 C 0.59375 -6.765625 0.664062 -6.945312 0.8125 -7.09375 C 0.96875 -7.238281 1.160156 -7.3125 1.390625 -7.3125 C 1.546875 -7.3125 1.679688 -7.273438 1.796875 -7.203125 C 1.921875 -7.140625 2.015625 -7.050781 2.078125 -6.9375 C 2.148438 -6.820312 2.1875 -6.691406 2.1875 -6.546875 C 2.1875 -6.398438 2.148438 -6.269531 2.078125 -6.15625 C 2.015625 -6.039062 1.921875 -5.945312 1.796875 -5.875 C 1.679688 -5.8125 1.546875 -5.78125 1.390625 -5.78125 Z M 0.75 0 L 0.75 -5.171875 L 2.046875 -5.171875 L 2.046875 0 Z M 0.75 0 "/></g></g></g><g fill="#ffffff" fill-opacity="1"><g transform="translate(66.675725, 86.348654)"><g><path d="M 0.75 0 L 0.75 -5.171875 L 1.984375 -5.171875 L 1.984375 -4.40625 L 2.09375 -4.390625 C 2.414062 -4.972656 2.9375 -5.265625 3.65625 -5.265625 C 4.25 -5.265625 4.6875 -5.101562 4.96875 -4.78125 C 5.25 -4.457031 5.390625 -3.984375 5.390625 -3.359375 L 5.390625 0 L 4.09375 0 L 4.09375 -3.203125 C 4.09375 -3.546875 4.019531 -3.789062 3.875 -3.9375 C 3.738281 -4.09375 3.519531 -4.171875 3.21875 -4.171875 C 2.851562 -4.171875 2.566406 -4.050781 2.359375 -3.8125 C 2.148438 -3.570312 2.046875 -3.191406 2.046875 -2.671875 L 2.046875 0 Z M 0.75 0 "/></g></g></g><g fill="#ffffff" fill-opacity="1"><g transform="translate(72.731384, 86.348654)"><g><path d="M 5.109375 -2.296875 L 1.78125 -2.296875 C 1.820312 -1.835938 1.953125 -1.503906 2.171875 -1.296875 C 2.390625 -1.097656 2.6875 -1 3.0625 -1 C 3.363281 -1 3.601562 -1.050781 3.78125 -1.15625 C 3.96875 -1.269531 4.117188 -1.441406 4.234375 -1.671875 L 4.328125 -1.671875 L 5.1875 -1.125 C 5.019531 -0.757812 4.765625 -0.460938 4.421875 -0.234375 C 4.085938 -0.015625 3.632812 0.09375 3.0625 0.09375 C 2.53125 0.09375 2.066406 -0.00390625 1.671875 -0.203125 C 1.285156 -0.410156 0.988281 -0.710938 0.78125 -1.109375 C 0.570312 -1.515625 0.46875 -2.003906 0.46875 -2.578125 C 0.46875 -3.171875 0.578125 -3.664062 0.796875 -4.0625 C 1.015625 -4.46875 1.3125 -4.769531 1.6875 -4.96875 C 2.070312 -5.164062 2.5 -5.265625 2.96875 -5.265625 C 3.695312 -5.265625 4.253906 -5.070312 4.640625 -4.6875 C 5.035156 -4.300781 5.234375 -3.734375 5.234375 -2.984375 C 5.234375 -2.710938 5.222656 -2.5 5.203125 -2.34375 Z M 3.984375 -3.125 C 3.972656 -3.519531 3.882812 -3.804688 3.71875 -3.984375 C 3.550781 -4.171875 3.300781 -4.265625 2.96875 -4.265625 C 2.3125 -4.265625 1.925781 -3.882812 1.8125 -3.125 Z M 3.984375 -3.125 "/></g></g></g><g fill="#ffffff" fill-opacity="1"><g transform="translate(78.351148, 86.348654)"><g><path d="M 5.109375 -2.296875 L 1.78125 -2.296875 C 1.820312 -1.835938 1.953125 -1.503906 2.171875 -1.296875 C 2.390625 -1.097656 2.6875 -1 3.0625 -1 C 3.363281 -1 3.601562 -1.050781 3.78125 -1.15625 C 3.96875 -1.269531 4.117188 -1.441406 4.234375 -1.671875 L 4.328125 -1.671875 L 5.1875 -1.125 C 5.019531 -0.757812 4.765625 -0.460938 4.421875 -0.234375 C 4.085938 -0.015625 3.632812 0.09375 3.0625 0.09375 C 2.53125 0.09375 2.066406 -0.00390625 1.671875 -0.203125 C 1.285156 -0.410156 0.988281 -0.710938 0.78125 -1.109375 C 0.570312 -1.515625 0.46875 -2.003906 0.46875 -2.578125 C 0.46875 -3.171875 0.578125 -3.664062 0.796875 -4.0625 C 1.015625 -4.46875 1.3125 -4.769531 1.6875 -4.96875 C 2.070312 -5.164062 2.5 -5.265625 2.96875 -5.265625 C 3.695312 -5.265625 4.253906 -5.070312 4.640625 -4.6875 C 5.035156 -4.300781 5.234375 -3.734375 5.234375 -2.984375 C 5.234375 -2.710938 5.222656 -2.5 5.203125 -2.34375 Z M 3.984375 -3.125 C 3.972656 -3.519531 3.882812 -3.804688 3.71875 -3.984375 C 3.550781 -4.171875 3.300781 -4.265625 2.96875 -4.265625 C 2.3125 -4.265625 1.925781 -3.882812 1.8125 -3.125 Z M 3.984375 -3.125 "/></g></g></g><g fill="#ffffff" fill-opacity="1"><g transform="translate(83.970913, 86.348654)"><g><path d="M 0.75 0 L 0.75 -5.171875 L 2 -5.171875 L 2 -4.40625 L 2.109375 -4.375 C 2.234375 -4.664062 2.394531 -4.878906 2.59375 -5.015625 C 2.800781 -5.148438 3.046875 -5.21875 3.328125 -5.21875 C 3.628906 -5.21875 3.851562 -5.164062 4 -5.0625 L 3.78125 -3.9375 L 3.6875 -3.921875 C 3.601562 -3.960938 3.519531 -3.988281 3.4375 -4 C 3.363281 -4.019531 3.269531 -4.03125 3.15625 -4.03125 C 2.789062 -4.03125 2.515625 -3.898438 2.328125 -3.640625 C 2.140625 -3.390625 2.046875 -2.984375 2.046875 -2.421875 L 2.046875 0 Z M 0.75 0 "/></g></g></g></svg>