<svg xmlns="http://www.w3.org/2000/svg" xmlns:xlink="http://www.w3.org/1999/xlink" width="500" zoomAndPan="magnify" viewBox="0 0 375 374.999991" height="500" preserveAspectRatio="xMidYMid meet" version="1.0"><defs><g/><clipPath id="15d1529bc2"><path d="M 64.445312 37.5 L 307.308594 37.5 L 307.308594 201.75 L 64.445312 201.75 Z M 64.445312 37.5 " clip-rule="nonzero"/></clipPath><clipPath id="3f22b67152"><path d="M 316.773438 233.019531 L 350.523438 233.019531 L 350.523438 272.019531 L 316.773438 272.019531 Z M 316.773438 233.019531 " clip-rule="nonzero"/></clipPath><clipPath id="ee526b190a"><path d="M 30.96875 274.90625 L 64.71875 274.90625 L 64.71875 313.90625 L 30.96875 313.90625 Z M 30.96875 274.90625 " clip-rule="nonzero"/></clipPath></defs><rect x="-37.5" width="450" fill="#ffffff" y="-37.499999" height="449.999989" fill-opacity="1"/><rect x="-37.5" width="450" fill="#ffffff" y="-37.499999" height="449.999989" fill-opacity="1"/><rect x="-37.5" width="450" fill="#fde8de" y="-37.499999" height="449.999989" fill-opacity="1"/><g clip-path="url(#15d1529bc2)"><path fill="#230b32" d="M 306.777344 140.972656 C 306.832031 139.4375 306.347656 137.949219 305.4375 136.765625 C 305.542969 135.589844 305.515625 134.273438 305.113281 132.933594 C 304.34375 130.378906 302.113281 128.554688 299.457031 128.304688 C 299.171875 128.28125 298.871094 128.265625 298.585938 128.265625 C 295.964844 128.265625 293.609375 129.308594 291.925781 130.128906 C 291.183594 129.84375 290.402344 129.714844 289.621094 129.714844 C 288.515625 129.714844 287.40625 129.988281 286.417969 130.558594 C 282.886719 132.566406 280.671875 135.773438 279.226562 138.40625 C 278.964844 138.550781 278.703125 138.707031 278.457031 138.890625 C 276.203125 140.53125 274.652344 143.175781 273.753906 145.105469 C 272.738281 147.28125 272.410156 149.378906 272.136719 151.074219 C 272.007812 151.910156 271.890625 152.691406 271.707031 153.25 C 271.707031 153.25 271.488281 153.917969 270.066406 155.195312 C 268.855469 156.277344 267.355469 157.292969 265.9375 158.21875 C 259.851562 162.152344 253.207031 164.238281 246.734375 164.238281 C 243.488281 164.238281 240.246094 163.730469 237.066406 162.714844 C 229.015625 160.132812 222.867188 157.957031 217.226562 153.382812 C 213.511719 150.371094 210.476562 147.425781 207.949219 144.390625 C 206.84375 143.074219 205.90625 141.429688 204.902344 139.695312 C 203.808594 137.792969 202.554688 135.65625 200.914062 133.625 C 199.820312 132.253906 198.6875 131.042969 197.59375 129.871094 C 196.472656 128.671875 195.429688 127.535156 194.542969 126.390625 C 194.335938 126.117188 194.128906 125.84375 193.917969 125.582031 C 192.902344 124.277344 191.886719 123 190.882812 121.777344 C 192.5625 121.382812 194.050781 120.328125 194.972656 118.804688 C 196.199219 116.785156 196.226562 114.28125 195.089844 112.246094 C 195.324219 112.039062 195.691406 111.792969 196.132812 111.609375 C 196.992188 111.257812 197.773438 111.101562 198.542969 111.101562 C 200.277344 111.101562 202.230469 111.972656 204.691406 113.839844 C 205.839844 114.710938 207.21875 115.167969 208.628906 115.167969 C 209.136719 115.167969 209.65625 115.101562 210.164062 114.984375 C 211.949219 114.554688 213.460938 113.394531 214.332031 111.804688 C 214.984375 112.011719 216.054688 112.523438 217.226562 113.484375 C 219.960938 115.753906 220.574219 117.996094 221.679688 122.855469 C 221.914062 123.886719 222.164062 124.941406 222.449219 126.089844 C 223.128906 128.75 225.394531 130.691406 228.117188 130.964844 C 228.324219 130.992188 228.546875 130.992188 228.753906 130.992188 C 231.242188 130.992188 233.535156 129.570312 234.632812 127.289062 C 234.929688 126.648438 235.230469 126.335938 235.359375 126.234375 C 235.464844 126.246094 235.738281 126.296875 236.179688 126.53125 C 238.65625 127.835938 240.636719 130.417969 242.058594 134.210938 C 243.332031 137.613281 244.101562 141.835938 244.375 146.734375 C 244.558594 150.203125 247.4375 152.898438 250.875 152.898438 C 250.992188 152.898438 251.109375 152.898438 251.242188 152.886719 C 254.109375 152.730469 256.453125 150.734375 257.167969 148.105469 C 257.234375 147.984375 257.300781 147.867188 257.363281 147.765625 C 257.78125 147.046875 258.199219 146.316406 258.511719 145.417969 C 259.019531 143.90625 259.382812 142.25 259.65625 140.246094 C 260.101562 136.882812 259.996094 133.664062 259.867188 131.226562 C 259.8125 130.402344 259.773438 129.53125 259.75 128.722656 L 259.722656 128.070312 C 259.527344 123.757812 259.320312 118.855469 258.328125 114.4375 C 257.703125 111.621094 256.894531 108.925781 256.113281 106.332031 C 255.605469 104.648438 255.136719 103.058594 254.707031 101.457031 C 251.957031 91.132812 248.84375 83.585938 245.171875 78.375 C 243.800781 76.429688 242.382812 74.554688 241 72.730469 C 239.84375 71.191406 238.746094 69.746094 237.679688 68.257812 C 232.597656 61.183594 225.890625 55.109375 217.734375 50.207031 C 214.203125 48.082031 210.242188 46.0625 205.632812 44.054688 C 200.96875 42.023438 196.265625 40.433594 191.664062 39.335938 C 186.546875 38.113281 181.503906 37.5 176.671875 37.5 C 175.042969 37.5 173.398438 37.566406 171.8125 37.707031 C 171.265625 37.761719 170.703125 37.800781 170.15625 37.851562 C 166.964844 38.113281 163.667969 38.386719 160.113281 39.324219 L 159.902344 39.375 C 158.25 39.808594 156.191406 40.355469 154.222656 41.476562 C 152.828125 42.269531 151.65625 43.273438 150.746094 44.445312 C 149.597656 45.917969 148.894531 47.613281 148.621094 49.492188 C 148.621094 49.53125 148.609375 49.570312 148.609375 49.609375 C 145.742188 48.75 142.890625 48.070312 140.113281 47.589844 C 139.722656 47.523438 139.28125 47.445312 138.785156 47.351562 C 134.707031 46.625 127.882812 45.410156 121.339844 45.410156 C 117.261719 45.410156 113.929688 45.878906 111.128906 46.84375 C 105.695312 48.707031 103.375 52.148438 102.398438 54.71875 C 101.628906 56.710938 101.890625 58.941406 103.089844 60.714844 C 104.289062 62.472656 106.269531 63.542969 108.40625 63.582031 C 113.578125 63.644531 119.59375 63.945312 125.039062 65.234375 C 124.53125 65.703125 124.011719 66.1875 123.503906 66.65625 C 120.847656 69.066406 117.484375 71.074219 114.03125 72.339844 C 113.863281 72.402344 113.238281 72.441406 112.792969 72.480469 C 111.660156 72.558594 110.125 72.679688 108.40625 73.25 C 105.355469 74.269531 102.605469 76.328125 100.664062 79.039062 C 100.144531 79.769531 99.792969 80.496094 99.546875 81.148438 C 99.179688 81.253906 98.789062 81.359375 98.398438 81.460938 C 98.097656 81.539062 97.800781 81.617188 97.5 81.695312 C 97.121094 81.800781 96.640625 81.90625 96.144531 82.011719 C 93.890625 82.503906 90.816406 83.183594 88.160156 85.527344 C 86.855469 86.675781 85.265625 88.722656 85.03125 91.953125 C 84.980469 92.605469 85.007812 93.230469 85.046875 93.804688 C 85.03125 93.804688 85.019531 93.804688 85.019531 93.804688 C 81.332031 93.960938 78.636719 95.121094 76.015625 97.675781 C 75.261719 98.417969 74.664062 99.164062 74.179688 99.761719 C 73.957031 100.035156 73.671875 100.402344 73.476562 100.597656 C 73.28125 100.648438 72.996094 100.714844 72.773438 100.765625 C 72.707031 100.765625 72.644531 100.765625 72.578125 100.765625 C 71.679688 100.777344 70.179688 100.804688 68.589844 101.46875 C 66.519531 102.34375 65.046875 104.21875 64.683594 106.433594 C 64.359375 108.46875 64.996094 110.515625 66.402344 111.988281 C 65.425781 113.132812 64.867188 114.621094 64.851562 116.195312 C 64.851562 118.828125 66.429688 121.203125 68.851562 122.21875 C 70.585938 122.949219 72.410156 123.3125 74.257812 123.3125 C 77.203125 123.3125 80.199219 122.363281 82.933594 120.578125 C 83.117188 120.941406 83.324219 121.292969 83.546875 121.644531 C 85.136719 124.070312 87.675781 125.671875 90.515625 126.050781 C 90.804688 126.089844 91.089844 126.101562 91.378906 126.101562 C 93.019531 126.101562 94.621094 125.476562 95.832031 124.34375 C 96.707031 123.535156 97.316406 122.503906 97.628906 121.382812 C 98.335938 121.90625 99.117188 122.375 99.960938 122.765625 C 100.835938 123.171875 101.761719 123.367188 102.683594 123.367188 C 103.921875 123.367188 105.160156 123.015625 106.230469 122.324219 C 108.105469 121.109375 109.226562 119.011719 109.199219 116.785156 C 109.1875 116.105469 109.394531 115.585938 109.875 115.101562 C 110.644531 114.320312 111.949219 113.839844 113.277344 113.839844 C 113.902344 113.839844 114.488281 113.941406 115.023438 114.152344 C 115.804688 114.464844 116.613281 114.605469 117.417969 114.605469 C 118.867188 114.605469 120.285156 114.125 121.457031 113.199219 C 122.945312 112.027344 123.828125 110.28125 123.921875 108.429688 C 124.324219 108.402344 124.859375 108.378906 125.550781 108.378906 L 125.652344 108.378906 C 126.058594 108.378906 126.472656 108.429688 127.53125 109.105469 C 127.921875 109.355469 128.390625 109.773438 128.9375 110.253906 C 129.457031 110.710938 130.058594 111.246094 130.746094 111.765625 C 131.710938 112.496094 132.832031 112.925781 133.992188 113.054688 C 134.367188 113.628906 134.785156 114.230469 135.269531 114.828125 C 135.878906 115.597656 136.414062 116.433594 136.871094 117.355469 C 136.804688 117.617188 136.738281 117.878906 136.675781 118.140625 C 135.917969 121.382812 135.699219 124.160156 135.984375 126.871094 C 136.894531 135.5 140.050781 144.023438 144.972656 151.296875 C 144.675781 151.441406 144.386719 151.582031 144.152344 151.6875 C 143.90625 151.804688 143.644531 151.921875 143.382812 152.054688 C 140.542969 153.449219 138.773438 155.648438 137.484375 157.265625 C 137.195312 157.617188 136.933594 157.957031 136.6875 158.230469 C 135.800781 159.246094 135.253906 160.277344 134.839844 161.085938 C 133.964844 161.320312 132.949219 161.777344 131.90625 162.648438 C 130.628906 163.730469 129.535156 165.230469 128.675781 167.09375 C 127.4375 169.777344 126.941406 172.214844 127.164062 174.574219 C 127.292969 175.863281 127.632812 177.101562 128.179688 178.261719 C 128.765625 179.488281 129.703125 180.738281 130.839844 181.769531 C 132.675781 183.449219 134.785156 184.335938 136.921875 184.335938 C 137.234375 184.335938 137.5625 184.3125 137.875 184.273438 C 139.867188 184.023438 141.636719 182.863281 142.667969 181.128906 C 143.410156 179.867188 143.710938 178.40625 143.527344 176.984375 C 143.644531 176.726562 143.761719 176.453125 143.851562 176.164062 C 144.648438 175.890625 145.574219 175.527344 146.523438 174.925781 C 146.875 174.707031 147.203125 174.484375 147.488281 174.289062 C 147.554688 174.234375 147.632812 174.183594 147.710938 174.132812 C 148.398438 174.429688 149.613281 174.886719 151.121094 174.886719 C 151.199219 174.886719 151.277344 174.886719 151.371094 174.886719 C 151.867188 174.875 152.375 174.808594 152.855469 174.707031 C 153.585938 174.980469 154.367188 175.121094 155.148438 175.121094 C 155.644531 175.121094 156.152344 175.070312 156.648438 174.953125 C 158.914062 174.417969 160.722656 172.699219 161.386719 170.46875 C 161.453125 170.261719 161.507812 170.050781 161.558594 169.832031 C 162.507812 171.042969 163.71875 172.542969 165.386719 173.753906 C 166.757812 175.773438 168.59375 176.867188 169.726562 177.546875 C 169.871094 177.625 170 177.703125 170.117188 177.78125 C 170.3125 178.261719 170.535156 179.265625 170.664062 179.894531 C 170.714844 180.167969 170.78125 180.441406 170.847656 180.726562 C 171.550781 183.816406 173.308594 186.042969 174.585938 187.660156 C 174.871094 188.011719 175.132812 188.351562 175.339844 188.652344 C 176.136719 189.746094 177.007812 190.515625 177.699219 191.101562 C 177.738281 192 177.933594 193.09375 178.558594 194.320312 C 179.316406 195.808594 180.527344 197.214844 182.15625 198.480469 C 184.488281 200.289062 186.753906 201.332031 189.085938 201.644531 C 189.582031 201.710938 190.074219 201.75 190.570312 201.75 C 191.351562 201.75 192.148438 201.660156 192.914062 201.503906 C 194.285156 201.203125 195.808594 200.5 197.097656 199.585938 C 199.988281 197.527344 200.796875 195.089844 200.980469 193.410156 C 201.1875 191.402344 200.460938 189.421875 199 188.027344 C 197.945312 187.007812 196.589844 186.394531 195.15625 186.253906 C 194.921875 186.070312 194.6875 185.902344 194.441406 185.746094 C 194.363281 184.910156 194.207031 183.933594 193.839844 182.851562 C 193.699219 182.445312 193.566406 182.09375 193.4375 181.769531 C 193.410156 181.691406 193.371094 181.613281 193.347656 181.523438 C 193.828125 180.882812 194.582031 179.734375 194.910156 178.132812 C 195.011719 177.636719 195.050781 177.140625 195.066406 176.648438 C 195.402344 176.140625 195.679688 175.578125 195.859375 174.992188 C 196.96875 175.65625 198.089844 176.320312 199.246094 177.011719 C 200.914062 178.015625 202.648438 179.046875 204.378906 180.0625 C 209.082031 182.8125 214.777344 184.859375 221.316406 186.148438 C 226.65625 187.203125 232.46875 187.738281 238.566406 187.738281 C 239.203125 187.738281 239.855469 187.738281 240.492188 187.726562 C 248.453125 187.570312 256.441406 185.863281 264.230469 182.644531 C 270.992188 179.839844 277.777344 175.824219 284.398438 170.71875 C 285.257812 170.050781 286.011719 169.335938 286.664062 168.695312 C 287.171875 168.214844 287.875 167.535156 288.1875 167.355469 C 288.605469 167.105469 289.308594 166.847656 290.050781 166.570312 C 291.09375 166.195312 292.265625 165.75 293.503906 165.074219 C 295.367188 164.058594 297.203125 162.703125 299.300781 160.796875 C 303.46875 157.003906 306.140625 152.457031 307 147.671875 C 307.261719 146.265625 307.039062 144.84375 306.425781 143.621094 C 306.609375 142.757812 306.738281 141.886719 306.777344 140.972656 Z M 239.191406 120.71875 C 237.824219 120.003906 236.519531 119.675781 235.296875 119.675781 C 232.519531 119.675781 230.1875 121.410156 228.742188 124.433594 C 227.101562 117.984375 226.8125 112.925781 221.355469 108.417969 C 219.21875 106.644531 216.339844 105.117188 213.746094 105.117188 C 211.703125 105.117188 209.8125 106.070312 208.601562 108.597656 C 205.476562 106.226562 202.179688 104.53125 198.519531 104.53125 C 196.96875 104.53125 195.351562 104.832031 193.660156 105.523438 C 189.800781 107.085938 186.558594 111.230469 189.386719 115.390625 C 187.992188 115.21875 186.558594 114.839844 185.175781 114.839844 C 183.785156 114.839844 182.453125 115.234375 181.28125 116.613281 C 180.644531 117.371094 180.238281 118.230469 180.003906 119.15625 C 183.078125 122.492188 186.023438 126.039062 188.761719 129.554688 C 188.96875 129.816406 189.164062 130.078125 189.371094 130.339844 C 191.367188 132.933594 193.789062 135.148438 195.835938 137.691406 C 198.558594 141.078125 200.105469 145.144531 202.933594 148.535156 C 205.957031 152.171875 209.433594 155.441406 213.109375 158.414062 C 219.777344 163.835938 227.007812 166.324219 235.074219 168.890625 C 238.96875 170.128906 242.863281 170.730469 246.722656 170.730469 C 254.695312 170.730469 262.457031 168.1875 269.453125 163.664062 C 272.503906 161.699219 276.816406 158.738281 277.921875 155.15625 C 278.664062 152.742188 278.5625 150.136719 279.628906 147.855469 C 280.203125 146.644531 281.191406 144.921875 282.273438 144.140625 C 282.78125 145.300781 282.480469 146.707031 283.054688 147.894531 C 283.679688 146.199219 283.539062 144.234375 284.382812 142.550781 C 285.597656 140.140625 287.199219 137.585938 289.609375 136.230469 C 288.8125 138.472656 288.058594 140.738281 288.265625 143.136719 C 288.332031 140.101562 291.328125 137.675781 293.777344 136.476562 C 295.117188 135.824219 297.007812 134.78125 298.570312 134.78125 C 298.675781 134.78125 298.765625 134.78125 298.859375 134.796875 C 299.183594 135.863281 298.6875 137.546875 298.480469 138.640625 C 298.089844 140.675781 296.566406 143.722656 295.222656 145 C 296.082031 144.625 296.96875 143.984375 297.671875 143.371094 C 298.570312 142.589844 299.289062 141.402344 300.238281 140.726562 C 300.132812 143.554688 298.273438 146.371094 296.695312 148.546875 C 298.15625 148.234375 299.273438 147.230469 300.550781 146.5 C 299.875 150.242188 297.644531 153.449219 294.871094 155.960938 C 293.503906 157.199219 291.964844 158.453125 290.351562 159.339844 C 288.617188 160.289062 286.597656 160.695312 284.851562 161.710938 C 283.226562 162.660156 281.84375 164.382812 280.371094 165.53125 C 268.84375 174.445312 255.460938 180.894531 240.324219 181.183594 C 239.726562 181.195312 239.125 181.195312 238.511719 181.195312 C 228.300781 181.195312 216.390625 179.554688 207.609375 174.417969 C 203.234375 171.851562 198.972656 169.203125 194.597656 166.730469 C 191.78125 165.136719 188.394531 164.878906 184.929688 164.878906 C 184.902344 164.878906 184.863281 164.878906 184.839844 164.878906 C 184.773438 165.046875 184.722656 165.242188 184.683594 165.425781 C 184.433594 166.625 184.488281 168.125 183.980469 169.230469 C 183.367188 170.597656 181.699219 171.238281 181.375 172.59375 C 181.085938 173.78125 181.414062 174.914062 182.089844 175.902344 C 182.453125 176.4375 182.84375 176.984375 183.234375 176.984375 C 183.46875 176.984375 183.707031 176.804688 183.941406 176.320312 C 184.238281 175.695312 184.449219 175.199219 184.878906 174.640625 C 185.605469 173.6875 187.054688 172.699219 188.410156 172.699219 C 188.824219 172.699219 189.230469 172.789062 189.605469 173.011719 C 189.046875 173.335938 187.328125 174.457031 187.574219 175.214844 C 187.640625 175.394531 188.042969 175.511719 188.1875 175.65625 C 188.460938 175.96875 188.566406 176.4375 188.488281 176.828125 C 188.382812 177.378906 187.953125 177.730469 187.679688 178.160156 C 187.117188 179.019531 186.636719 180.335938 186.636719 181.351562 C 186.636719 182.617188 187.25 183.789062 187.652344 184.960938 C 188.070312 186.175781 187.898438 187.476562 188.171875 188.714844 C 188.449219 189.992188 188.957031 190.359375 190.128906 190.816406 C 191.234375 191.246094 191.78125 191.816406 192.199219 192.925781 C 192.929688 192.78125 193.722656 192.820312 194.480469 192.703125 C 194.363281 193.824219 192.460938 194.894531 191.496094 195.101562 C 191.183594 195.167969 190.859375 195.207031 190.558594 195.207031 C 190.347656 195.207031 190.140625 195.195312 189.945312 195.167969 C 188.550781 194.984375 187.261719 194.191406 186.140625 193.316406 C 185.476562 192.796875 184.734375 192.105469 184.34375 191.335938 C 184.121094 190.894531 184.1875 190.722656 184.226562 190.292969 C 184.277344 189.65625 184.214844 188.976562 183.914062 188.324219 C 183.222656 186.828125 181.542969 186.109375 180.589844 184.804688 C 179.328125 183.058594 177.660156 181.40625 177.164062 179.242188 C 176.644531 176.972656 176.242188 174.078125 174.089844 172.59375 C 172.605469 171.5625 170.832031 170.976562 170.300781 169.074219 C 166.78125 167.667969 165.480469 162.074219 161.453125 162.074219 C 161.425781 162.074219 161.386719 162.074219 161.363281 162.074219 C 160.425781 162.089844 159.34375 162.335938 158.351562 162.335938 C 158.054688 162.335938 157.765625 162.308594 157.492188 162.257812 C 156.035156 161.972656 155.019531 160.484375 153.636719 160.472656 C 153.625 160.472656 153.609375 160.472656 153.597656 160.472656 C 152.386719 160.472656 151.382812 161.046875 150.589844 161.917969 C 149.910156 162.664062 149.179688 163.496094 150.601562 163.820312 C 151.277344 163.980469 151.800781 164.070312 152.453125 164.355469 C 153.882812 164.996094 155.644531 166.820312 155.121094 168.59375 C 154.730469 168.175781 153.546875 167.042969 152.804688 167.042969 C 152.699219 167.042969 152.609375 167.066406 152.515625 167.121094 C 152.347656 167.222656 152.335938 167.652344 152.21875 167.808594 C 151.96875 168.148438 151.550781 168.359375 151.148438 168.371094 C 151.136719 168.371094 151.121094 168.371094 151.109375 168.371094 C 150.574219 168.371094 150.132812 168.058594 149.675781 167.886719 C 149.011719 167.652344 148.164062 167.496094 147.359375 167.496094 C 146.992188 167.496094 146.640625 167.535156 146.328125 167.601562 C 145.105469 167.886719 144.085938 168.761719 143.046875 169.414062 C 141.964844 170.089844 140.660156 170.234375 139.5 170.769531 C 138.328125 171.316406 138.082031 171.902344 137.898438 173.140625 C 137.730469 174.3125 137.300781 174.980469 136.324219 175.644531 C 136.621094 176.320312 136.777344 177.101562 137.050781 177.808594 C 137 177.808594 136.960938 177.820312 136.910156 177.820312 C 135.816406 177.820312 134.433594 176.308594 134.03125 175.460938 C 133.796875 174.964844 133.664062 174.457031 133.613281 173.949219 C 133.484375 172.542969 133.953125 171.109375 134.550781 169.832031 C 134.902344 169.0625 135.410156 168.1875 136.0625 167.628906 C 136.441406 167.300781 136.621094 167.339844 137.039062 167.277344 C 137.664062 167.183594 138.316406 166.964844 138.890625 166.519531 C 140.191406 165.515625 140.519531 163.703125 141.558594 162.480469 C 142.96875 160.851562 144.203125 158.855469 146.199219 157.878906 C 148.296875 156.863281 151.003906 155.804688 151.96875 153.371094 C 152.28125 152.5625 152.492188 151.714844 152.804688 150.957031 C 147.058594 143.917969 143.359375 135.097656 142.40625 126.15625 C 142.171875 123.914062 142.445312 121.777344 142.953125 119.574219 C 143.164062 118.699219 143.410156 117.828125 143.710938 116.980469 C 142.914062 114.710938 141.808594 112.585938 140.269531 110.683594 C 139.046875 109.160156 138.238281 107.347656 136.972656 105.847656 C 136.386719 105.144531 135.75 104.78125 135.046875 104.257812 C 134.707031 103.996094 134.472656 103.605469 134.09375 103.386719 C 133.992188 103.320312 133.15625 103.097656 133.117188 103.097656 C 133.703125 104.074219 134.757812 105.3125 134.617188 106.539062 C 133.378906 105.601562 132.324219 104.453125 130.96875 103.582031 C 129.273438 102.5 127.632812 101.835938 125.601562 101.820312 C 125.5625 101.820312 125.523438 101.820312 125.484375 101.820312 C 123.046875 101.820312 119.699219 101.9375 118.175781 104.113281 C 117.328125 105.328125 117.144531 106.589844 117.355469 108.023438 C 116.027344 107.503906 114.605469 107.242188 113.210938 107.242188 C 107.832031 107.242188 102.554688 110.90625 102.632812 116.785156 C 101.800781 116.394531 101.03125 115.820312 100.339844 115.140625 C 100.601562 114.644531 100.835938 114.097656 101.03125 113.5 C 101.382812 112.445312 101.511719 111.441406 101.539062 110.578125 C 101.851562 110.175781 102.097656 110.007812 102.308594 109.902344 C 102.738281 109.679688 103.429688 109.445312 104.027344 109.25 C 104.523438 109.082031 105.121094 108.925781 105.761719 108.742188 C 108.3125 108.039062 111.804688 107.074219 114.617188 104.269531 C 115.164062 103.722656 116.246094 102.5625 117.199219 100.988281 C 118.421875 98.992188 119.035156 97.011719 119.035156 95.109375 C 119.035156 92.542969 117.523438 90.207031 115.179688 89.164062 C 114.332031 88.789062 113.421875 88.605469 112.519531 88.605469 C 110.972656 88.605469 109.433594 89.164062 108.222656 90.222656 C 108.171875 90.234375 108.039062 90.273438 107.804688 90.3125 C 107.804688 90.3125 107.792969 90.3125 107.792969 90.3125 C 107.441406 90.3125 106.777344 90.207031 106.191406 90.117188 C 105.839844 90.066406 105.472656 90.011719 105.09375 89.960938 C 104.484375 89.882812 103.882812 89.84375 103.296875 89.84375 C 101.734375 89.84375 100.261719 90.128906 98.921875 90.703125 C 97.410156 91.34375 96.394531 92.226562 95.78125 92.75 C 95.675781 92.777344 95.570312 92.800781 95.46875 92.828125 C 94.503906 93.050781 93.070312 93.386719 91.585938 94.25 C 91.351562 92.839844 91.195312 91.367188 92.367188 90.339844 C 94.203125 88.722656 96.863281 88.515625 99.117188 87.902344 C 100.390625 87.550781 101.824219 87.222656 103.035156 86.726562 C 103.664062 86.46875 104.429688 86.257812 104.835938 85.683594 C 105.433594 84.824219 105.226562 83.640625 105.851562 82.753906 C 106.972656 81.203125 108.535156 79.949219 110.359375 79.351562 C 112.324219 78.699219 114.203125 79.101562 116.167969 78.375 C 120.390625 76.835938 124.453125 74.410156 127.789062 71.402344 C 129.535156 69.808594 131.191406 68.21875 132.988281 66.695312 C 133.585938 66.1875 136.0625 64.347656 136.921875 62.980469 C 128.765625 57.898438 117.730469 57.101562 108.40625 56.984375 C 109.929688 53.023438 115.308594 51.863281 121.277344 51.863281 C 128.050781 51.863281 135.554688 53.363281 138.941406 53.949219 C 147.957031 55.5 157.625 59.382812 165.296875 64.246094 C 167.082031 65.378906 169.050781 66.644531 170.964844 68.023438 C 170.886719 66.410156 170.703125 64.832031 170.300781 63.347656 C 169.503906 60.375 168.828125 56.59375 166.324219 54.507812 C 165.648438 53.949219 164.683594 53.753906 163.890625 53.363281 C 162.796875 52.800781 162.09375 52.125 161.308594 51.183594 C 160.371094 50.050781 159.394531 49.6875 158.3125 49.6875 C 157.3125 49.6875 156.230469 50.011719 155.003906 50.351562 C 155.460938 47.132812 158.914062 46.3125 161.714844 45.566406 C 165.285156 44.628906 168.695312 44.460938 172.320312 44.148438 C 173.738281 44.015625 175.171875 43.964844 176.605469 43.964844 C 185.660156 43.964844 194.726562 46.390625 202.960938 49.972656 C 206.789062 51.640625 210.648438 53.53125 214.292969 55.734375 C 221.34375 59.984375 227.503906 65.339844 232.300781 72.011719 C 234.734375 75.402344 237.355469 78.671875 239.75 82.074219 C 243.75 87.757812 246.523438 96.371094 248.308594 103.085938 C 249.445312 107.359375 250.902344 111.503906 251.867188 115.820312 C 252.777344 119.886719 252.949219 124.605469 253.144531 128.96875 C 253.183594 129.84375 253.222656 130.714844 253.273438 131.550781 C 253.417969 134.144531 253.457031 136.765625 253.117188 139.34375 C 252.949219 140.675781 252.699219 142.003906 252.269531 143.28125 C 252.023438 143.996094 250.785156 145.691406 250.824219 146.332031 C 250.382812 137.363281 247.996094 125.332031 239.191406 120.71875 Z M 91.351562 119.558594 C 89.253906 119.285156 88.105469 117.199219 88.289062 115.246094 C 88.484375 113.199219 89.136719 110.34375 86.480469 110.34375 C 86.269531 110.34375 86.035156 110.359375 85.789062 110.398438 C 84.5 110.59375 83.613281 111.425781 82.753906 112.3125 C 81.761719 113.316406 80.695312 114.152344 79.523438 114.957031 C 77.90625 116.066406 76.082031 116.757812 74.21875 116.757812 C 73.269531 116.757812 72.292969 116.574219 71.328125 116.171875 C 73.035156 115.453125 74.976562 115.375 76.644531 114.320312 C 78.191406 113.34375 78.882812 111.542969 79.992188 110.175781 C 80.914062 109.027344 82.207031 108.15625 83.496094 107.492188 C 84.25 107.101562 85.203125 106.929688 85.878906 106.355469 C 87.078125 105.339844 86.269531 104.6875 85.097656 104.6875 C 84.953125 104.6875 84.8125 104.703125 84.667969 104.714844 C 82.871094 104.949219 81.109375 106.1875 79.40625 106.761719 C 77.738281 107.320312 75.664062 108.429688 73.738281 108.429688 C 72.785156 108.429688 71.875 108.167969 71.054688 107.453125 C 71.824219 107.125 73.007812 107.347656 73.867188 107.152344 C 74.820312 106.929688 75.9375 106.695312 76.773438 106.1875 C 78.386719 105.183594 79.210938 103.554688 80.5 102.304688 C 81.984375 100.855469 83.15625 100.375 85.226562 100.28125 C 85.28125 100.28125 85.332031 100.28125 85.382812 100.28125 C 85.421875 100.28125 85.449219 100.28125 85.488281 100.28125 C 87.207031 100.335938 88.40625 101.613281 90.125 101.703125 C 90.203125 101.703125 90.28125 101.703125 90.359375 101.703125 C 90.453125 101.703125 90.542969 101.703125 90.632812 101.691406 C 92.183594 101.597656 93.578125 100.699219 94.882812 99.917969 C 96.144531 99.148438 97.800781 99.253906 99.089844 98.472656 C 99.949219 97.9375 100.523438 97.140625 101.488281 96.738281 C 102.074219 96.492188 102.699219 96.398438 103.324219 96.398438 C 103.636719 96.398438 103.960938 96.425781 104.273438 96.464844 C 105.40625 96.609375 106.660156 96.867188 107.832031 96.867188 C 108.117188 96.867188 108.40625 96.855469 108.679688 96.816406 C 110.085938 96.632812 111.425781 96.191406 112.574219 95.160156 C 112.574219 96.6875 111.0625 98.691406 110.058594 99.695312 C 107.933594 101.808594 104.71875 102.199219 101.996094 103.113281 C 101.109375 103.410156 100.222656 103.710938 99.375 104.140625 C 98.097656 104.792969 97.097656 105.707031 96.277344 106.8125 C 96.027344 105.902344 96.433594 104.882812 96.824219 104.074219 C 95.675781 104.726562 95.195312 106.332031 95.039062 107.554688 C 94.867188 108.832031 95.273438 110.265625 94.867188 111.503906 C 94.710938 111.988281 94.476562 112.417969 94.21875 112.808594 C 93.578125 113.746094 92.730469 114.515625 92.027344 115.429688 C 92.015625 115.441406 92.015625 115.453125 92.003906 115.46875 C 90.84375 117.019531 91.234375 117.828125 91.351562 119.558594 Z M 91.351562 119.558594 " fill-opacity="1" fill-rule="nonzero"/></g><path fill="#230b32" d="M 158.210938 102.238281 C 158.171875 99.164062 157.9375 96.035156 157.351562 92.855469 C 155.472656 82.714844 149.011719 75.207031 142.433594 67.632812 C 140.960938 65.925781 139.265625 64.503906 137.429688 63.304688 C 137.390625 65.640625 135.632812 68.441406 134.5 70.136719 C 132.375 73.316406 129.898438 76.496094 127.074219 79.089844 C 129.992188 77.421875 133.992188 75.742188 137.679688 75.742188 C 138.746094 75.742188 139.789062 75.882812 140.777344 76.210938 C 138.03125 76.273438 134.996094 78.269531 132.882812 79.859375 C 133.09375 79.886719 133.300781 79.898438 133.523438 79.898438 C 134.617188 79.898438 135.722656 79.625 136.832031 79.625 C 137.039062 79.625 137.234375 79.636719 137.445312 79.652344 C 139.058594 79.820312 140.519531 80.496094 142.042969 81.007812 C 141.910156 81.007812 141.769531 80.992188 141.636719 80.992188 C 138.289062 80.992188 133.601562 82.324219 131.488281 84.902344 C 136.636719 85.191406 141.742188 85.488281 145.625 89.398438 C 143.957031 89.453125 142.277344 89.335938 140.726562 90.078125 C 142.5 90.613281 144.777344 90.039062 146.433594 90.753906 C 146.796875 90.910156 147.265625 91.105469 147.332031 91.539062 C 147.382812 91.875 146.472656 92.972656 146.183594 92.972656 C 146.183594 92.972656 146.183594 92.972656 146.171875 92.972656 C 147.5 93.074219 149.949219 93.113281 151.253906 93.648438 C 151.058594 94.496094 150.300781 95.175781 149.871094 95.824219 C 150.183594 95.929688 150.523438 95.957031 150.863281 95.957031 C 151.746094 95.957031 152.6875 95.722656 153.585938 95.722656 C 153.765625 95.722656 153.9375 95.734375 154.117188 95.761719 C 154.132812 97.011719 152.867188 97.886719 152.804688 98.925781 C 152.933594 98.941406 153.0625 98.941406 153.195312 98.941406 C 154.300781 98.941406 155.433594 98.667969 156.488281 98.601562 C 156.28125 99.515625 155.773438 100.464844 155.226562 101.246094 C 155.902344 101.875 157.101562 102.148438 158.210938 102.238281 Z M 158.210938 102.238281 " fill-opacity="1" fill-rule="nonzero"/><path fill="#230b32" d="M 158.210938 104.113281 C 158.210938 103.816406 158.210938 103.527344 158.210938 103.230469 C 157.960938 103.398438 157.703125 103.566406 157.453125 103.75 C 157.6875 103.878906 157.9375 103.996094 158.210938 104.113281 Z M 158.210938 104.113281 " fill-opacity="1" fill-rule="nonzero"/><g clip-path="url(#3f22b67152)"><path fill="#230b32" d="M 331.929688 272.019531 L 317.433594 263.324219 L 321.933594 261.085938 Z M 316.773438 262.050781 L 316.773438 245.273438 L 321.222656 259.835938 Z M 316.773438 244.09375 L 316.773438 243.128906 C 316.773438 242.894531 316.867188 242.703125 317.007812 242.5625 L 332.925781 238.675781 L 332.925781 233.019531 L 317.339844 242.351562 L 322.265625 258.421875 L 332.238281 240.300781 Z M 334.367188 233.019531 L 349.976562 242.375 L 344.980469 258.445312 L 335.03125 240.253906 L 350.523438 244 L 350.523438 243.128906 C 350.523438 242.847656 350.378906 242.632812 350.191406 242.492188 L 350.117188 242.46875 L 334.367188 238.652344 Z M 350.523438 245.4375 L 350.523438 262.003906 L 346.023438 259.835938 Z M 349.859375 263.300781 L 335.386719 271.972656 L 345.335938 261.085938 Z M 343.488281 260.921875 L 323.757812 260.921875 L 333.632812 271.785156 Z M 333.660156 240.679688 L 323.308594 259.507812 L 343.960938 259.507812 Z M 333.660156 240.679688 " fill-opacity="1" fill-rule="evenodd"/></g><g clip-path="url(#ee526b190a)"><path fill="#230b32" d="M 46.125 313.90625 L 31.632812 305.210938 L 36.132812 302.972656 Z M 30.96875 303.9375 L 30.96875 287.160156 L 35.421875 301.722656 Z M 30.96875 285.980469 L 30.96875 285.015625 C 30.96875 284.777344 31.0625 284.589844 31.203125 284.449219 L 47.121094 280.5625 L 47.121094 274.90625 L 31.535156 284.238281 L 36.460938 300.308594 L 46.433594 282.1875 Z M 48.566406 274.90625 L 64.171875 284.261719 L 59.175781 300.332031 L 49.226562 282.140625 L 64.71875 285.886719 L 64.71875 285.015625 C 64.71875 284.730469 64.574219 284.519531 64.386719 284.378906 L 64.316406 284.355469 L 48.566406 280.539062 Z M 64.71875 287.324219 L 64.71875 303.890625 L 60.21875 301.722656 Z M 64.054688 305.1875 L 49.582031 313.859375 L 59.53125 302.972656 Z M 57.683594 302.804688 L 37.953125 302.804688 L 47.832031 313.667969 Z M 47.855469 282.5625 L 37.503906 301.390625 L 58.15625 301.390625 Z M 47.855469 282.5625 " fill-opacity="1" fill-rule="evenodd"/></g><g fill="#230b32" fill-opacity="1"><g transform="translate(36.650343, 263.705212)"><g><path d="M 15.546875 -25.046875 L 15.546875 -2.734375 C 15.566406 -2.078125 15.8125 -1.519531 16.28125 -1.0625 C 16.75 -0.601562 17.3125 -0.375 17.96875 -0.375 L 18.4375 -0.375 L 18.46875 0 L 6.921875 0 L 6.921875 -0.375 L 7.40625 -0.375 C 8.039062 -0.375 8.59375 -0.601562 9.0625 -1.0625 C 9.53125 -1.519531 9.789062 -2.066406 9.84375 -2.703125 L 9.84375 -25.046875 L 4.71875 -25.046875 C 3.550781 -25.015625 2.625 -24.644531 1.9375 -23.9375 C 1.25 -23.226562 0.90625 -22.304688 0.90625 -21.171875 L 0.90625 -20.703125 L 0.53125 -20.703125 L 0.53125 -27.328125 C 1.570312 -26.890625 3.066406 -26.660156 5.015625 -26.640625 L 20.328125 -26.640625 C 21.117188 -26.640625 21.972656 -26.710938 22.890625 -26.859375 C 23.816406 -27.015625 24.457031 -27.171875 24.8125 -27.328125 L 24.8125 -20.703125 L 24.4375 -20.703125 L 24.4375 -21.171875 C 24.4375 -22.734375 23.835938 -23.847656 22.640625 -24.515625 C 22.085938 -24.835938 21.421875 -25.015625 20.640625 -25.046875 Z M 15.546875 -25.046875 "/></g></g></g><g fill="#230b32" fill-opacity="1"><g transform="translate(73.353177, 263.705212)"><g><path d="M 25.296875 -0.375 L 25.609375 -0.375 L 25.609375 0 L 14.4375 0 L 14.4375 -0.375 L 14.734375 -0.375 C 15.242188 -0.375 15.613281 -0.523438 15.84375 -0.828125 C 16.070312 -1.140625 16.1875 -1.421875 16.1875 -1.671875 C 16.1875 -1.921875 16.132812 -2.1875 16.03125 -2.46875 L 14.546875 -5.96875 L 6.484375 -5.96875 L 4.96875 -2.4375 C 4.863281 -2.175781 4.8125 -1.910156 4.8125 -1.640625 C 4.8125 -1.378906 4.929688 -1.101562 5.171875 -0.8125 C 5.421875 -0.519531 5.796875 -0.375 6.296875 -0.375 L 6.609375 -0.375 L 6.609375 0 L -1 0 L -1 -0.375 L -0.6875 -0.375 C -0.15625 -0.375 0.375 -0.539062 0.90625 -0.875 C 1.4375 -1.207031 1.867188 -1.703125 2.203125 -2.359375 L 10.0625 -19.234375 C 11.175781 -21.734375 11.757812 -23.273438 11.8125 -23.859375 L 12.15625 -23.859375 L 22.34375 -2.515625 C 22.664062 -1.773438 23.097656 -1.234375 23.640625 -0.890625 C 24.191406 -0.546875 24.742188 -0.375 25.296875 -0.375 Z M 7.140625 -7.453125 L 13.90625 -7.453125 L 10.5625 -15.390625 Z M 7.140625 -7.453125 "/></g></g></g><g fill="#230b32" fill-opacity="1"><g transform="translate(109.22018, 263.705212)"><g><path d="M 20.140625 -17.140625 C 20.140625 -16.203125 19.9375 -15.378906 19.53125 -14.671875 C 18.75 -13.296875 17.554688 -12.546875 15.953125 -12.421875 C 17.648438 -12.296875 19.066406 -11.691406 20.203125 -10.609375 C 21.347656 -9.535156 21.921875 -8.164062 21.921875 -6.5 C 21.921875 -3.226562 19.957031 -1.175781 16.03125 -0.34375 C 14.914062 -0.113281 13.703125 0 12.390625 0 L 1.375 0 L 1.375 -0.375 L 1.78125 -0.375 C 2.363281 -0.375 2.851562 -0.5625 3.25 -0.9375 C 3.644531 -1.320312 3.851562 -1.804688 3.875 -2.390625 L 3.875 -20.40625 C 3.851562 -21.320312 3.421875 -21.941406 2.578125 -22.265625 C 2.328125 -22.367188 2.0625 -22.421875 1.78125 -22.421875 L 1.375 -22.421875 L 1.375 -22.796875 L 11.546875 -22.796875 C 17.273438 -22.796875 20.140625 -20.910156 20.140625 -17.140625 Z M 15.765625 -6.84375 C 15.765625 -8.007812 15.523438 -8.984375 15.046875 -9.765625 C 14.160156 -11.285156 12.628906 -12.046875 10.453125 -12.046875 C 10.421875 -12.046875 10.394531 -12.046875 10.375 -12.046875 L 10.375 -12.390625 C 11.59375 -12.390625 12.582031 -12.742188 13.34375 -13.453125 C 14.101562 -14.160156 14.484375 -15.265625 14.484375 -16.765625 C 14.484375 -19.796875 13.101562 -21.3125 10.34375 -21.3125 L 9.265625 -21.3125 L 9.265625 -1.515625 L 10.796875 -1.515625 C 12.265625 -1.515625 13.457031 -1.945312 14.375 -2.8125 C 15.300781 -3.675781 15.765625 -5.019531 15.765625 -6.84375 Z M 15.765625 -6.84375 "/></g></g></g><g fill="#230b32" fill-opacity="1"><g transform="translate(143.567497, 263.705212)"><g><path d="M 1.296875 0 L 1.296875 -0.375 L 1.75 -0.375 C 2.332031 -0.375 2.816406 -0.5625 3.203125 -0.9375 C 3.597656 -1.320312 3.796875 -1.796875 3.796875 -2.359375 L 3.796875 -20.40625 C 3.796875 -20.957031 3.59375 -21.429688 3.1875 -21.828125 C 2.78125 -22.222656 2.300781 -22.421875 1.75 -22.421875 L 1.296875 -22.421875 L 1.296875 -22.796875 L 11.859375 -22.796875 L 11.859375 -22.421875 L 11.40625 -22.421875 C 10.820312 -22.421875 10.328125 -22.226562 9.921875 -21.84375 C 9.515625 -21.46875 9.3125 -20.988281 9.3125 -20.40625 L 9.3125 -1.515625 L 13.875 -1.515625 C 15.4375 -1.546875 16.765625 -2.035156 17.859375 -2.984375 C 18.953125 -3.929688 19.75 -5.265625 20.25 -6.984375 L 20.671875 -6.984375 L 19.1875 0 Z M 1.296875 0 "/></g></g></g><g fill="#230b32" fill-opacity="1"><g transform="translate(175.787248, 263.705212)"><g><path d="M 19.1875 0 L 1.296875 0 L 1.296875 -0.375 L 1.75 -0.375 C 2.332031 -0.375 2.816406 -0.5625 3.203125 -0.9375 C 3.597656 -1.320312 3.8125 -1.796875 3.84375 -2.359375 L 3.84375 -20.4375 C 3.8125 -21 3.597656 -21.46875 3.203125 -21.84375 C 2.816406 -22.226562 2.332031 -22.421875 1.75 -22.421875 L 1.296875 -22.421875 L 1.296875 -22.796875 L 14.671875 -22.796875 C 15.347656 -22.796875 16.09375 -22.859375 16.90625 -22.984375 C 17.71875 -23.117188 18.289062 -23.25 18.625 -23.375 L 18.625 -17.328125 L 18.234375 -17.328125 L 18.234375 -17.671875 C 18.234375 -18.785156 17.929688 -19.65625 17.328125 -20.28125 C 16.722656 -20.914062 15.875 -21.25 14.78125 -21.28125 L 9.3125 -21.28125 L 9.3125 -12.046875 L 13.640625 -12.046875 C 14.503906 -12.066406 15.203125 -12.351562 15.734375 -12.90625 C 16.265625 -13.46875 16.53125 -14.179688 16.53125 -15.046875 L 16.53125 -15.3125 L 16.90625 -15.3125 L 16.90625 -7.265625 L 16.53125 -7.265625 L 16.53125 -7.53125 C 16.53125 -8.71875 16.085938 -9.578125 15.203125 -10.109375 C 14.742188 -10.390625 14.238281 -10.53125 13.6875 -10.53125 L 9.3125 -10.53125 L 9.3125 -1.515625 L 13.875 -1.515625 C 15.4375 -1.546875 16.769531 -2.035156 17.875 -2.984375 C 18.976562 -3.929688 19.785156 -5.265625 20.296875 -6.984375 L 20.640625 -6.984375 Z M 19.1875 0 "/></g></g></g><g fill="#230b32" fill-opacity="1"><g transform="translate(208.576881, 263.705212)"><g><path d="M 22 -17.40625 L 22 -17.75 C 22 -18.832031 21.691406 -19.691406 21.078125 -20.328125 C 20.472656 -20.960938 19.628906 -21.289062 18.546875 -21.3125 L 14.140625 -21.3125 L 14.140625 -2.359375 C 14.160156 -1.796875 14.375 -1.320312 14.78125 -0.9375 C 15.1875 -0.5625 15.664062 -0.375 16.21875 -0.375 L 16.640625 -0.375 L 16.640625 0 L 6.15625 0 L 6.15625 -0.375 L 6.53125 -0.375 C 7.113281 -0.375 7.609375 -0.5625 8.015625 -0.9375 C 8.421875 -1.320312 8.625 -1.804688 8.625 -2.390625 L 8.625 -21.3125 L 4.25 -21.3125 C 3.132812 -21.289062 2.273438 -20.960938 1.671875 -20.328125 C 1.066406 -19.691406 0.765625 -18.832031 0.765625 -17.75 L 0.765625 -17.40625 L 0.375 -17.40625 L 0.375 -23.40625 C 0.726562 -23.28125 1.316406 -23.15625 2.140625 -23.03125 C 2.960938 -22.90625 3.707031 -22.84375 4.375 -22.84375 L 18.390625 -22.84375 C 19.503906 -22.84375 20.421875 -22.921875 21.140625 -23.078125 C 21.867188 -23.242188 22.28125 -23.351562 22.375 -23.40625 L 22.375 -17.40625 Z M 22 -17.40625 "/></g></g></g><g fill="#230b32" fill-opacity="1"><g transform="translate(242.734231, 263.705212)"><g><path d="M 1.328125 -11.390625 C 1.328125 -15.046875 2.546875 -17.941406 4.984375 -20.078125 C 7.429688 -22.222656 10.6875 -23.296875 14.75 -23.296875 C 18.820312 -23.296875 22.085938 -22.222656 24.546875 -20.078125 C 27.003906 -17.941406 28.234375 -15.046875 28.234375 -11.390625 C 28.234375 -7.742188 27.003906 -4.847656 24.546875 -2.703125 C 22.085938 -0.566406 18.832031 0.5 14.78125 0.5 C 10.726562 0.5 7.472656 -0.566406 5.015625 -2.703125 C 2.554688 -4.847656 1.328125 -7.742188 1.328125 -11.390625 Z M 7.140625 -11.390625 C 7.140625 -8.203125 7.828125 -5.675781 9.203125 -3.8125 C 10.585938 -1.957031 12.4375 -1.03125 14.75 -1.03125 C 17.070312 -1.03125 18.921875 -1.957031 20.296875 -3.8125 C 21.679688 -5.675781 22.375 -8.203125 22.375 -11.390625 C 22.375 -14.585938 21.679688 -17.117188 20.296875 -18.984375 C 18.921875 -20.847656 17.070312 -21.78125 14.75 -21.78125 C 12.4375 -21.78125 10.585938 -20.847656 9.203125 -18.984375 C 7.828125 -17.117188 7.140625 -14.585938 7.140625 -11.390625 Z M 7.140625 -11.390625 "/></g></g></g><g fill="#230b32" fill-opacity="1"><g transform="translate(283.654204, 263.705212)"><g><path d="M 20.484375 -12.578125 C 19.210938 -10.367188 17.222656 -9.265625 14.515625 -9.265625 C 13.171875 -9.265625 11.84375 -9.710938 10.53125 -10.609375 L 10.53125 -10.90625 C 13.0625 -10.90625 14.679688 -12.195312 15.390625 -14.78125 C 15.546875 -15.363281 15.625 -15.832031 15.625 -16.1875 C 15.625 -17.9375 15.203125 -19.226562 14.359375 -20.0625 C 13.523438 -20.894531 12.410156 -21.3125 11.015625 -21.3125 L 9.3125 -21.3125 L 9.3125 -2.390625 C 9.332031 -1.578125 9.675781 -0.992188 10.34375 -0.640625 C 10.644531 -0.460938 10.984375 -0.375 11.359375 -0.375 L 11.8125 -0.375 L 11.8125 0 L 1.328125 0 L 1.328125 -0.375 L 1.78125 -0.375 C 2.34375 -0.375 2.816406 -0.5625 3.203125 -0.9375 C 3.597656 -1.320312 3.796875 -1.796875 3.796875 -2.359375 L 3.796875 -20.40625 C 3.796875 -20.988281 3.597656 -21.46875 3.203125 -21.84375 C 2.816406 -22.226562 2.332031 -22.421875 1.75 -22.421875 L 1.296875 -22.421875 L 1.296875 -22.796875 L 12.546875 -22.796875 C 15.453125 -22.796875 17.628906 -22.210938 19.078125 -21.046875 C 20.617188 -19.859375 21.390625 -18.226562 21.390625 -16.15625 C 21.390625 -14.832031 21.085938 -13.640625 20.484375 -12.578125 Z M 20.484375 -12.578125 "/></g></g></g><g fill="#230b32" fill-opacity="1"><g transform="translate(72.89463, 303.716025)"><g><path d="M 35.03125 -24.15625 L 34.71875 -24.15625 C 34.132812 -24.15625 33.546875 -23.976562 32.953125 -23.625 C 32.359375 -23.269531 31.929688 -22.769531 31.671875 -22.125 L 25.796875 -3.25 C 25.398438 -1.96875 25.203125 -0.78125 25.203125 0.3125 C 25.203125 0.425781 25.203125 0.53125 25.203125 0.625 L 24.84375 0.625 L 17.21875 -16.28125 L 11.6875 -3.25 C 11.144531 -1.894531 10.863281 -0.601562 10.84375 0.625 L 10.5 0.625 L 2.125 -22.125 C 1.820312 -22.800781 1.390625 -23.304688 0.828125 -23.640625 C 0.273438 -23.984375 -0.289062 -24.15625 -0.875 -24.15625 L -1.15625 -24.15625 L -1.15625 -24.5 L 9.515625 -24.5 L 9.515625 -24.15625 L 9.203125 -24.15625 C 8.710938 -24.15625 8.34375 -23.992188 8.09375 -23.671875 C 7.851562 -23.359375 7.734375 -23.0625 7.734375 -22.78125 C 7.734375 -22.5 7.78125 -22.234375 7.875 -21.984375 L 12.171875 -9.796875 L 18.515625 -25.0625 L 18.828125 -25.03125 L 25.796875 -9.65625 L 29.296875 -21.984375 C 29.359375 -22.234375 29.390625 -22.5 29.390625 -22.78125 C 29.390625 -23.0625 29.28125 -23.359375 29.0625 -23.671875 C 28.84375 -23.992188 28.476562 -24.15625 27.96875 -24.15625 L 27.640625 -24.15625 L 27.640625 -24.5 L 35.03125 -24.5 Z M 35.03125 -24.15625 "/></g></g></g><g fill="#230b32" fill-opacity="1"><g transform="translate(117.371982, 303.716025)"><g><path d="M 1.21875 -10.5 C 1.21875 -13.863281 2.34375 -16.53125 4.59375 -18.5 C 6.851562 -20.46875 9.851562 -21.453125 13.59375 -21.453125 C 17.34375 -21.453125 20.347656 -20.46875 22.609375 -18.5 C 24.867188 -16.53125 26 -13.863281 26 -10.5 C 26 -7.132812 24.867188 -4.46875 22.609375 -2.5 C 20.347656 -0.53125 17.347656 0.453125 13.609375 0.453125 C 9.878906 0.453125 6.878906 -0.53125 4.609375 -2.5 C 2.347656 -4.46875 1.21875 -7.132812 1.21875 -10.5 Z M 6.578125 -10.5 C 6.578125 -7.5625 7.210938 -5.234375 8.484375 -3.515625 C 9.753906 -1.796875 11.457031 -0.9375 13.59375 -0.9375 C 15.726562 -0.9375 17.429688 -1.796875 18.703125 -3.515625 C 19.972656 -5.234375 20.609375 -7.5625 20.609375 -10.5 C 20.609375 -13.4375 19.972656 -15.765625 18.703125 -17.484375 C 17.429688 -19.203125 15.726562 -20.0625 13.59375 -20.0625 C 11.457031 -20.0625 9.753906 -19.203125 8.484375 -17.484375 C 7.210938 -15.765625 6.578125 -13.4375 6.578125 -10.5 Z M 6.578125 -10.5 "/></g></g></g><g fill="#230b32" fill-opacity="1"><g transform="translate(155.06087, 303.716025)"><g><path d="M 9.90625 -19.5625 L 8.78125 -19.5625 L 8.78125 -2.203125 C 8.78125 -1.640625 8.972656 -1.1875 9.359375 -0.84375 C 9.742188 -0.507812 10.179688 -0.34375 10.671875 -0.34375 L 11.0625 -0.34375 L 11.0625 0 L 1.4375 0 L 1.4375 -0.34375 L 1.859375 -0.34375 C 2.367188 -0.34375 2.800781 -0.519531 3.15625 -0.875 C 3.519531 -1.226562 3.703125 -1.660156 3.703125 -2.171875 L 3.703125 -18.828125 C 3.703125 -19.335938 3.519531 -19.769531 3.15625 -20.125 C 2.800781 -20.476562 2.378906 -20.65625 1.890625 -20.65625 L 1.4375 -20.65625 L 1.4375 -21 L 12.1875 -21 C 14.28125 -21 16.039062 -20.59375 17.46875 -19.78125 C 19.050781 -18.863281 19.84375 -17.359375 19.84375 -15.265625 C 19.84375 -13.910156 19.429688 -12.6875 18.609375 -11.59375 C 17.796875 -10.507812 16.585938 -9.851562 14.984375 -9.625 C 15.609375 -9.414062 16.226562 -9.019531 16.84375 -8.4375 C 17.46875 -7.851562 17.96875 -7.257812 18.34375 -6.65625 C 19.082031 -5.320312 19.859375 -4.097656 20.671875 -2.984375 C 21.492188 -1.878906 22.15625 -1.160156 22.65625 -0.828125 C 23.164062 -0.503906 23.78125 -0.34375 24.5 -0.34375 L 24.5 0 L 21.5625 0 C 19.625 0 18.132812 -0.234375 17.09375 -0.703125 C 16.0625 -1.171875 15.132812 -2.054688 14.3125 -3.359375 C 13.050781 -5.367188 12.269531 -6.957031 11.96875 -8.125 C 11.6875 -8.820312 11.351562 -9.34375 10.96875 -9.6875 C 10.582031 -10.039062 10.21875 -10.242188 9.875 -10.296875 L 9.875 -10.5625 L 10.75 -10.5625 C 12.726562 -10.59375 13.941406 -11.757812 14.390625 -14.0625 C 14.484375 -14.414062 14.53125 -14.71875 14.53125 -14.96875 C 14.53125 -15.226562 14.515625 -15.585938 14.484375 -16.046875 C 14.460938 -16.503906 14.316406 -17.015625 14.046875 -17.578125 C 13.785156 -18.148438 13.441406 -18.566406 13.015625 -18.828125 C 12.296875 -19.273438 11.550781 -19.507812 10.78125 -19.53125 C 10.519531 -19.550781 10.226562 -19.5625 9.90625 -19.5625 Z M 9.90625 -19.5625 "/></g></g></g><g fill="#230b32" fill-opacity="1"><g transform="translate(188.550698, 303.716025)"><g><path d="M 1.265625 0 L 1.265625 -0.34375 L 1.609375 -0.34375 C 2.359375 -0.34375 2.921875 -0.648438 3.296875 -1.265625 C 3.453125 -1.546875 3.539062 -1.859375 3.5625 -2.203125 L 3.5625 -18.796875 C 3.539062 -19.515625 3.21875 -20.050781 2.59375 -20.40625 C 2.289062 -20.570312 1.960938 -20.65625 1.609375 -20.65625 L 1.21875 -20.65625 L 1.21875 -21 L 10.921875 -21 L 10.921875 -20.65625 L 10.53125 -20.65625 C 10.019531 -20.65625 9.570312 -20.476562 9.1875 -20.125 C 8.800781 -19.769531 8.597656 -19.335938 8.578125 -18.828125 L 8.578125 -2.203125 C 8.597656 -1.691406 8.796875 -1.253906 9.171875 -0.890625 C 9.546875 -0.523438 10 -0.34375 10.53125 -0.34375 L 10.890625 -0.34375 L 10.921875 0 Z M 24.328125 0 L 21.625 0 C 18.382812 0 16.078125 -0.894531 14.703125 -2.6875 C 14.585938 -2.875 14.070312 -3.585938 13.15625 -4.828125 C 10.800781 -8.117188 9.625 -9.773438 9.625 -9.796875 L 16.796875 -19.3125 C 17.054688 -19.644531 17.101562 -19.957031 16.9375 -20.25 C 16.769531 -20.539062 16.488281 -20.6875 16.09375 -20.6875 L 15.78125 -20.6875 L 15.78125 -21 L 22.921875 -21 L 22.921875 -20.6875 L 22.78125 -20.6875 C 21.519531 -20.6875 20.472656 -20.265625 19.640625 -19.421875 L 13.828125 -12.5625 L 21.171875 -2.34375 C 22.109375 -1.007812 23.160156 -0.332031 24.328125 -0.3125 Z M 24.328125 0 "/></g></g></g><g fill="#230b32" fill-opacity="1"><g transform="translate(222.600416, 303.716025)"><g><path d="M 1.609375 -2.875 C 1.609375 -4.382812 1.945312 -5.675781 2.625 -6.75 L 2.90625 -6.75 C 2.882812 -6.59375 2.875 -6.441406 2.875 -6.296875 C 2.875 -4.878906 3.378906 -3.628906 4.390625 -2.546875 C 5.410156 -1.472656 6.828125 -0.9375 8.640625 -0.9375 C 9.953125 -0.9375 10.960938 -1.238281 11.671875 -1.84375 C 12.378906 -2.457031 12.734375 -3.132812 12.734375 -3.875 C 12.734375 -4.625 12.53125 -5.226562 12.125 -5.6875 C 11.71875 -6.144531 11.046875 -6.675781 10.109375 -7.28125 L 5.140625 -10.4375 C 3.046875 -11.738281 2 -13.414062 2 -15.46875 C 2 -15.675781 2.007812 -15.898438 2.03125 -16.140625 C 2.164062 -17.796875 2.804688 -19.09375 3.953125 -20.03125 C 5.097656 -20.976562 6.445312 -21.453125 8 -21.453125 C 9.550781 -21.453125 11.191406 -21.347656 12.921875 -21.140625 L 14.8125 -21.140625 L 14.3125 -16.515625 L 14 -16.515625 C 14 -17.617188 13.617188 -18.484375 12.859375 -19.109375 C 12.097656 -19.742188 11.09375 -20.0625 9.84375 -20.0625 C 8.601562 -20.0625 7.617188 -19.796875 6.890625 -19.265625 C 6.171875 -18.742188 5.8125 -18.050781 5.8125 -17.1875 C 5.8125 -16.488281 6.160156 -15.878906 6.859375 -15.359375 C 7.140625 -15.148438 7.546875 -14.882812 8.078125 -14.5625 L 13.65625 -11.125 C 15.5625 -9.957031 16.515625 -8.347656 16.515625 -6.296875 C 16.515625 -4.128906 15.75 -2.460938 14.21875 -1.296875 C 12.695312 -0.128906 10.722656 0.453125 8.296875 0.453125 C 6.804688 0.453125 5.488281 0.28125 4.34375 -0.0625 C 3.195312 -0.414062 2.351562 -0.863281 1.8125 -1.40625 C 1.675781 -1.820312 1.609375 -2.3125 1.609375 -2.875 Z M 1.609375 -2.875 "/></g></g></g><g fill="#230b32" fill-opacity="1"><g transform="translate(251.086384, 303.716025)"><g><path d="M 24.703125 -0.34375 L 25.09375 -0.34375 L 25.09375 0 L 15.46875 0 L 15.46875 -0.34375 L 15.8125 -0.34375 C 16.351562 -0.34375 16.8125 -0.519531 17.1875 -0.875 C 17.5625 -1.226562 17.75 -1.671875 17.75 -2.203125 L 17.75 -9.765625 L 8.546875 -9.765625 L 8.546875 -2.203125 C 8.566406 -1.671875 8.757812 -1.226562 9.125 -0.875 C 9.5 -0.519531 9.945312 -0.34375 10.46875 -0.34375 L 10.84375 -0.34375 L 10.84375 0 L 1.1875 0 L 1.1875 -0.34375 L 1.578125 -0.34375 C 2.109375 -0.34375 2.5625 -0.523438 2.9375 -0.890625 C 3.3125 -1.253906 3.5 -1.691406 3.5 -2.203125 L 3.5 -18.796875 C 3.5 -19.304688 3.3125 -19.742188 2.9375 -20.109375 C 2.5625 -20.472656 2.109375 -20.65625 1.578125 -20.65625 L 1.1875 -20.65625 L 1.1875 -21 L 10.84375 -21 L 10.84375 -20.65625 L 10.46875 -20.65625 C 9.945312 -20.65625 9.5 -20.476562 9.125 -20.125 C 8.757812 -19.769531 8.566406 -19.335938 8.546875 -18.828125 L 8.546875 -11.171875 L 17.75 -11.171875 L 17.75 -18.796875 C 17.75 -19.515625 17.429688 -20.050781 16.796875 -20.40625 C 16.492188 -20.570312 16.164062 -20.65625 15.8125 -20.65625 L 15.46875 -20.65625 L 15.46875 -21 L 25.09375 -21 L 25.09375 -20.65625 L 24.703125 -20.65625 C 24.191406 -20.65625 23.75 -20.476562 23.375 -20.125 C 23 -19.769531 22.800781 -19.328125 22.78125 -18.796875 L 22.78125 -2.171875 C 22.800781 -1.441406 23.117188 -0.914062 23.734375 -0.59375 C 24.035156 -0.425781 24.359375 -0.34375 24.703125 -0.34375 Z M 24.703125 -0.34375 "/></g></g></g><g fill="#230b32" fill-opacity="1"><g transform="translate(287.830476, 303.716025)"><g><path d="M 1.21875 -10.5 C 1.21875 -13.863281 2.34375 -16.53125 4.59375 -18.5 C 6.851562 -20.46875 9.851562 -21.453125 13.59375 -21.453125 C 17.34375 -21.453125 20.347656 -20.46875 22.609375 -18.5 C 24.867188 -16.53125 26 -13.863281 26 -10.5 C 26 -7.132812 24.867188 -4.46875 22.609375 -2.5 C 20.347656 -0.53125 17.347656 0.453125 13.609375 0.453125 C 9.878906 0.453125 6.878906 -0.53125 4.609375 -2.5 C 2.347656 -4.46875 1.21875 -7.132812 1.21875 -10.5 Z M 6.578125 -10.5 C 6.578125 -7.5625 7.210938 -5.234375 8.484375 -3.515625 C 9.753906 -1.796875 11.457031 -0.9375 13.59375 -0.9375 C 15.726562 -0.9375 17.429688 -1.796875 18.703125 -3.515625 C 19.972656 -5.234375 20.609375 -7.5625 20.609375 -10.5 C 20.609375 -13.4375 19.972656 -15.765625 18.703125 -17.484375 C 17.429688 -19.203125 15.726562 -20.0625 13.59375 -20.0625 C 11.457031 -20.0625 9.753906 -19.203125 8.484375 -17.484375 C 7.210938 -15.765625 6.578125 -13.4375 6.578125 -10.5 Z M 6.578125 -10.5 "/></g></g></g><g fill="#230b32" fill-opacity="1"><g transform="translate(325.51937, 303.716025)"><g><path d="M 18.859375 -11.578125 C 17.691406 -9.554688 15.863281 -8.546875 13.375 -8.546875 C 12.132812 -8.546875 10.90625 -8.953125 9.6875 -9.765625 L 9.6875 -10.046875 C 12.019531 -10.046875 13.515625 -11.234375 14.171875 -13.609375 C 14.316406 -14.148438 14.390625 -14.582031 14.390625 -14.90625 C 14.390625 -16.519531 14.003906 -17.710938 13.234375 -18.484375 C 12.460938 -19.253906 11.4375 -19.640625 10.15625 -19.640625 L 8.578125 -19.640625 L 8.578125 -2.203125 C 8.597656 -1.453125 8.910156 -0.914062 9.515625 -0.59375 C 9.796875 -0.425781 10.113281 -0.34375 10.46875 -0.34375 L 10.890625 -0.34375 L 10.890625 0 L 1.21875 0 L 1.21875 -0.34375 L 1.640625 -0.34375 C 2.160156 -0.34375 2.597656 -0.519531 2.953125 -0.875 C 3.316406 -1.226562 3.5 -1.660156 3.5 -2.171875 L 3.5 -18.796875 C 3.5 -19.328125 3.316406 -19.769531 2.953125 -20.125 C 2.597656 -20.476562 2.148438 -20.65625 1.609375 -20.65625 L 1.1875 -20.65625 L 1.1875 -21 L 11.546875 -21 C 14.234375 -21 16.238281 -20.460938 17.5625 -19.390625 C 18.988281 -18.296875 19.703125 -16.789062 19.703125 -14.875 C 19.703125 -13.664062 19.421875 -12.566406 18.859375 -11.578125 Z M 18.859375 -11.578125 "/></g></g></g></svg>