<svg xmlns="http://www.w3.org/2000/svg" xmlns:xlink="http://www.w3.org/1999/xlink" width="500" zoomAndPan="magnify" viewBox="0 0 375 374.999991" height="500" preserveAspectRatio="xMidYMid meet" version="1.0"><defs><clipPath id="dd30690463"><path d="M 49.355469 0 L 324.605469 0 L 324.605469 375 L 49.355469 375 Z M 49.355469 0 " clip-rule="nonzero"/></clipPath></defs><rect x="-37.5" width="450" fill="#ffffff" y="-37.499999" height="449.999989" fill-opacity="1"/><rect x="-37.5" width="450" fill="#ffffff" y="-37.499999" height="449.999989" fill-opacity="1"/><rect x="-37.5" width="450" fill="#ffffff" y="-37.499999" height="449.999989" fill-opacity="1"/><g clip-path="url(#dd30690463)"><path fill="#554574" d="M 77.21875 374.519531 L 296.820312 374.519531 C 297.734375 374.519531 298.644531 374.472656 299.550781 374.382812 C 300.460938 374.296875 301.363281 374.160156 302.257812 373.984375 C 303.152344 373.804688 304.035156 373.585938 304.910156 373.320312 C 305.78125 373.054688 306.640625 372.746094 307.484375 372.398438 C 308.328125 372.050781 309.152344 371.660156 309.957031 371.230469 C 310.761719 370.800781 311.542969 370.332031 312.300781 369.824219 C 313.058594 369.316406 313.792969 368.773438 314.496094 368.195312 C 315.203125 367.617188 315.878906 367.003906 316.523438 366.359375 C 317.167969 365.714844 317.78125 365.039062 318.359375 364.335938 C 318.9375 363.628906 319.480469 362.898438 319.988281 362.140625 C 320.496094 361.382812 320.964844 360.597656 321.394531 359.796875 C 321.824219 358.992188 322.214844 358.167969 322.5625 357.324219 C 322.914062 356.480469 323.21875 355.625 323.484375 354.75 C 323.75 353.878906 323.972656 352.992188 324.148438 352.097656 C 324.328125 351.203125 324.460938 350.304688 324.550781 349.394531 C 324.640625 348.488281 324.683594 347.578125 324.683594 346.664062 L 324.683594 28.335938 C 324.683594 27.421875 324.640625 26.511719 324.550781 25.605469 C 324.460938 24.695312 324.328125 23.796875 324.148438 22.902344 C 323.972656 22.007812 323.75 21.121094 323.484375 20.25 C 323.21875 19.375 322.914062 18.519531 322.5625 17.675781 C 322.214844 16.832031 321.824219 16.007812 321.394531 15.203125 C 320.964844 14.402344 320.496094 13.617188 319.988281 12.859375 C 319.480469 12.101562 318.9375 11.371094 318.359375 10.664062 C 317.78125 9.960938 317.167969 9.285156 316.523438 8.640625 C 315.878906 7.996094 315.203125 7.382812 314.496094 6.804688 C 313.792969 6.226562 313.058594 5.683594 312.300781 5.175781 C 311.542969 4.667969 310.761719 4.199219 309.957031 3.769531 C 309.152344 3.339844 308.328125 2.949219 307.484375 2.601562 C 306.640625 2.253906 305.78125 1.945312 304.910156 1.679688 C 304.035156 1.414062 303.152344 1.195312 302.257812 1.015625 C 301.363281 0.839844 300.460938 0.703125 299.550781 0.617188 C 298.644531 0.527344 297.734375 0.480469 296.820312 0.480469 L 77.21875 0.480469 C 76.304688 0.480469 75.394531 0.527344 74.488281 0.617188 C 73.578125 0.703125 72.675781 0.839844 71.78125 1.015625 C 70.886719 1.195312 70.003906 1.414062 69.128906 1.679688 C 68.257812 1.945312 67.398438 2.253906 66.554688 2.601562 C 65.710938 2.949219 64.886719 3.339844 64.082031 3.769531 C 63.277344 4.199219 62.496094 4.667969 61.738281 5.175781 C 60.980469 5.683594 60.246094 6.226562 59.542969 6.804688 C 58.835938 7.382812 58.160156 7.996094 57.515625 8.640625 C 56.871094 9.285156 56.257812 9.960938 55.679688 10.664062 C 55.101562 11.371094 54.558594 12.101562 54.050781 12.859375 C 53.542969 13.617188 53.074219 14.402344 52.644531 15.203125 C 52.214844 16.007812 51.824219 16.832031 51.476562 17.675781 C 51.125 18.519531 50.820312 19.375 50.554688 20.25 C 50.289062 21.121094 50.070312 22.007812 49.890625 22.902344 C 49.710938 23.796875 49.578125 24.695312 49.488281 25.605469 C 49.398438 26.511719 49.355469 27.421875 49.355469 28.335938 L 49.355469 346.664062 C 49.355469 347.578125 49.398438 348.488281 49.488281 349.394531 C 49.578125 350.304688 49.710938 351.203125 49.890625 352.097656 C 50.070312 352.992188 50.289062 353.878906 50.554688 354.75 C 50.820312 355.625 51.125 356.480469 51.476562 357.324219 C 51.824219 358.167969 52.214844 358.992188 52.644531 359.796875 C 53.074219 360.597656 53.542969 361.382812 54.050781 362.140625 C 54.558594 362.898438 55.101562 363.628906 55.679688 364.335938 C 56.257812 365.039062 56.871094 365.714844 57.515625 366.359375 C 58.160156 367.003906 58.835938 367.617188 59.542969 368.195312 C 60.246094 368.773438 60.980469 369.316406 61.738281 369.824219 C 62.496094 370.332031 63.277344 370.800781 64.082031 371.230469 C 64.886719 371.660156 65.710938 372.050781 66.554688 372.398438 C 67.398438 372.746094 68.257812 373.054688 69.128906 373.320312 C 70.003906 373.585938 70.886719 373.804688 71.78125 373.984375 C 72.675781 374.160156 73.578125 374.296875 74.488281 374.382812 C 75.394531 374.472656 76.304688 374.519531 77.21875 374.519531 Z M 65.277344 28.335938 C 65.277344 27.550781 65.351562 26.773438 65.507812 26.007812 C 65.660156 25.238281 65.886719 24.492188 66.1875 23.765625 C 66.484375 23.042969 66.855469 22.355469 67.289062 21.703125 C 67.726562 21.050781 68.21875 20.449219 68.773438 19.894531 C 69.328125 19.339844 69.933594 18.84375 70.585938 18.410156 C 71.234375 17.972656 71.925781 17.605469 72.648438 17.304688 C 73.371094 17.007812 74.121094 16.78125 74.890625 16.628906 C 75.65625 16.472656 76.433594 16.398438 77.21875 16.398438 L 296.820312 16.398438 C 297.605469 16.398438 298.382812 16.472656 299.152344 16.628906 C 299.921875 16.78125 300.667969 17.007812 301.390625 17.304688 C 302.117188 17.605469 302.804688 17.972656 303.457031 18.410156 C 304.109375 18.84375 304.710938 19.339844 305.265625 19.894531 C 305.820312 20.449219 306.316406 21.050781 306.75 21.703125 C 307.1875 22.355469 307.554688 23.042969 307.855469 23.765625 C 308.152344 24.492188 308.378906 25.238281 308.535156 26.007812 C 308.6875 26.773438 308.761719 27.550781 308.761719 28.335938 L 308.761719 346.664062 C 308.761719 347.449219 308.6875 348.226562 308.535156 348.992188 C 308.378906 349.761719 308.152344 350.507812 307.855469 351.234375 C 307.554688 351.957031 307.1875 352.644531 306.75 353.296875 C 306.316406 353.949219 305.820312 354.550781 305.265625 355.105469 C 304.710938 355.660156 304.109375 356.15625 303.457031 356.589844 C 302.804688 357.027344 302.117188 357.394531 301.390625 357.695312 C 300.667969 357.992188 299.921875 358.21875 299.152344 358.371094 C 298.382812 358.527344 297.605469 358.601562 296.820312 358.601562 L 77.21875 358.601562 C 76.433594 358.601562 75.65625 358.527344 74.890625 358.371094 C 74.121094 358.21875 73.371094 357.992188 72.648438 357.695312 C 71.925781 357.394531 71.234375 357.027344 70.585938 356.589844 C 69.933594 356.15625 69.328125 355.660156 68.773438 355.105469 C 68.21875 354.550781 67.726562 353.949219 67.289062 353.296875 C 66.855469 352.644531 66.484375 351.957031 66.1875 351.234375 C 65.886719 350.507812 65.660156 349.761719 65.507812 348.992188 C 65.351562 348.226562 65.277344 347.449219 65.277344 346.664062 Z M 65.277344 28.335938 " fill-opacity="1" fill-rule="nonzero"/></g><path fill="#554574" d="M 280.222656 36.074219 L 93.757812 36.074219 L 93.757812 108.476562 L 280.222656 108.476562 Z M 264.300781 92.558594 L 109.679688 92.558594 L 109.679688 51.992188 L 264.300781 51.992188 Z M 264.300781 92.558594 " fill-opacity="1" fill-rule="nonzero"/><path fill="#554574" d="M 160.351562 184.933594 L 213.667969 184.933594 L 213.667969 131.632812 L 160.351562 131.632812 Z M 176.273438 147.550781 L 197.746094 147.550781 L 197.746094 169.015625 L 176.273438 169.015625 Z M 176.273438 147.550781 " fill-opacity="1" fill-rule="nonzero"/><path fill="#554574" d="M 147.074219 131.632812 L 93.757812 131.632812 L 93.757812 184.933594 L 147.074219 184.933594 Z M 131.152344 169.015625 L 109.679688 169.015625 L 109.679688 147.550781 L 131.152344 147.550781 Z M 131.152344 169.015625 " fill-opacity="1" fill-rule="nonzero"/><path fill="#554574" d="M 226.964844 184.933594 L 280.222656 184.933594 L 280.222656 131.632812 L 226.964844 131.632812 Z M 242.886719 147.550781 L 264.300781 147.550781 L 264.300781 169.015625 L 242.886719 169.015625 Z M 242.886719 147.550781 " fill-opacity="1" fill-rule="nonzero"/><path fill="#554574" d="M 160.351562 251.164062 L 213.667969 251.164062 L 213.667969 197.945312 L 160.351562 197.945312 Z M 176.273438 213.78125 L 197.746094 213.78125 L 197.746094 235.25 L 176.273438 235.25 Z M 176.273438 213.78125 " fill-opacity="1" fill-rule="nonzero"/><path fill="#554574" d="M 147.074219 197.945312 L 93.757812 197.945312 L 93.757812 251.164062 L 147.074219 251.164062 Z M 131.152344 235.25 L 109.679688 235.25 L 109.679688 213.863281 L 131.152344 213.863281 Z M 131.152344 235.25 " fill-opacity="1" fill-rule="nonzero"/><path fill="#554574" d="M 226.964844 251.164062 L 280.222656 251.164062 L 280.222656 197.945312 L 226.964844 197.945312 Z M 242.886719 213.78125 L 264.300781 213.78125 L 264.300781 235.25 L 242.886719 235.25 Z M 242.886719 213.78125 " fill-opacity="1" fill-rule="nonzero"/><path fill="#554574" d="M 160.351562 317.558594 L 213.667969 317.558594 L 213.667969 264.257812 L 160.351562 264.257812 Z M 176.273438 280.171875 L 197.746094 280.171875 L 197.746094 301.640625 L 176.273438 301.640625 Z M 176.273438 280.171875 " fill-opacity="1" fill-rule="nonzero"/><path fill="#554574" d="M 147.074219 264.257812 L 93.757812 264.257812 L 93.757812 317.558594 L 147.074219 317.558594 Z M 131.152344 301.640625 L 109.679688 301.640625 L 109.679688 280.171875 L 131.152344 280.171875 Z M 131.152344 301.640625 " fill-opacity="1" fill-rule="nonzero"/><path fill="#554574" d="M 226.964844 317.558594 L 280.222656 317.558594 L 280.222656 264.257812 L 226.964844 264.257812 Z M 242.886719 280.171875 L 264.300781 280.171875 L 264.300781 301.640625 L 242.886719 301.640625 Z M 242.886719 280.171875 " fill-opacity="1" fill-rule="nonzero"/></svg>